<?xml version="1.0" encoding="utf-8"?>
<!-- Generator: Adobe Illustrator 27.5.0, SVG Export Plug-In . SVG Version: 6.00 Build 0)  -->
<svg version="1.1" xmlns="http://www.w3.org/2000/svg" xmlns:xlink="http://www.w3.org/1999/xlink" x="0px" y="0px"
	 viewBox="0 0 500 500" style="enable-background:new 0 0 500 500;" xml:space="preserve">
<g id="BACKGROUND">
	<rect style="fill:#FFFFFF;" width="500" height="500"/>
	<g>
		<g>
			<path style="fill:#CCE8F2;" d="M152.337,309.756c0,0-109.189-123.79-86.97-155.53S145.989,265.953,152.337,309.756z"/>
			<g>
				<g>
					<path style="fill:#DEF5FF;" d="M135.477,273.239c6.869,5.899,6.62,18.139,15.302,22.89c10.562,5.771,6.352,23.252,6.352,23.252
						l-5.443,5.901c0,0-17.065,5.585-23.669-4.477c-1.278-1.973-2.968-3.413-4.851-4.514c-0.868-0.523-1.753-0.941-2.678-1.358
						c-7.527-3.249-16.886-3.78-19.836-12.895c-2.455-7.585-11.687-8.039-19.398-12.293c-0.867-0.481-1.713-0.984-2.543-1.591
						c-4.085-2.934-7.388-7.489-8.419-15.628c-2.579-20.368-22.474-15.804-28.246-26.251c-0.447-0.85-0.837-1.805-1.107-2.847
						c-0.345-1.391-0.513-2.975-0.442-4.816c0.672-19.156-22.702-25.029-18.503-34.619c0.32-0.777,0.824-1.582,1.535-2.396
						c0.02-0.021,0.059-0.064,0.101-0.066c8.809-7.958,17.684,16.39,38.143,14.014c13.961-1.617,14.445,10.861,20.924,19.379
						c0.589,0.782,1.218,1.521,1.928,2.215c2.928,2.939,7.042,5.066,13.375,5.347c24.296,1.084,18.81,24.814,31.845,27.903
						c1.127,0.285,2.133,0.658,3.04,1.096C133.856,271.983,134.726,272.546,135.477,273.239z"/>
				</g>
				<path style="opacity:0.5;fill:#DEF5FF;" d="M135.477,273.239c-4.515,3.302-10.98,8.934-11.93,14.571
					c-0.362,2.287,0.238,4.349,1.864,6.246l13.617,12.361c0.297,0.195,0.614,0.368,0.932,0.582l-0.117,0.17l15.527,14.122
					l-1.979,2.146l-16.192-14.736c-1.139-0.574-2.302-0.733-3.614-0.474c-3.524,0.721-7.365,4.326-10.416,8.064
					c-0.868-0.523-1.753-0.941-2.678-1.358c3.323-4.163,7.873-8.623,12.524-9.575c0.143-0.026,0.289-0.012,0.454-0.018
					l-33.283-30.262c-2.71-2.142-5.174-2.786-7.558-1.967c-5.258,1.782-9.267,10.435-11.371,16.634
					c-0.867-0.481-1.713-0.984-2.543-1.591c2.128-6.139,6.435-15.588,12.976-17.815c0.917-0.306,1.841-0.446,2.77-0.463
					l-28.459-25.891c-10.507-7.983-20.029-1.319-23.953,2.29c-0.447-0.85-0.837-1.805-1.107-2.847
					c3.637-3.039,10.265-7.211,18.048-5.79l-36.994-33.644c0.32-0.777,0.824-1.582,1.535-2.396c0.02-0.021,0.059-0.064,0.101-0.066
					l53.677,48.794c-0.529-1.838-0.706-3.669-0.408-5.499c0.578-4.114,3.129-7.439,5.797-9.902c0.589,0.782,1.218,1.521,1.928,2.215
					c-2.271,2.075-4.371,4.825-4.858,8.108c-0.61,4.322,1.68,8.856,6.868,13.522l-0.02,0.022l33.927,30.855
					c-0.051-0.762-0.001-1.549,0.133-2.34c1.049-6.26,7.4-12.156,12.21-15.821C133.856,271.983,134.726,272.546,135.477,273.239z"/>
			</g>
		</g>
		<g>
			<path style="fill:#CCE8F2;" d="M332.408,303.622c0,0,118.464-78.64,107.058-110.006S347.461,268.592,332.408,303.622z"/>
			<path style="fill:#CCE8F2;" d="M330.67,302.668c0,0,137.042-37.914,135.953-71.271
				C465.533,198.039,355.868,274.055,330.67,302.668z"/>
			<g>
				<g>
					<path style="fill:#DEF5FF;" d="M340.123,239.243c-4.278,7.98,0.371,19.305-6.012,26.87c-7.768,9.193,2.466,23.977,2.466,23.977
						l7.205,3.539c0,0,17.931-0.948,20.459-12.716c0.48-2.301,1.537-4.254,2.895-5.96c0.621-0.801,1.295-1.51,2.008-2.233
						c5.847-5.746,14.384-9.618,13.847-19.184c-0.447-7.96,7.999-11.714,13.656-18.464c0.634-0.762,1.242-1.536,1.798-2.402
						c2.751-4.21,4.188-9.651,2.213-17.613c-4.944-19.926,15.257-22.849,16.871-34.675c0.111-0.954,0.13-1.985,0.005-3.055
						c-0.18-1.422-0.595-2.959-1.325-4.651c-7.539-17.623,12.141-31.535,4.765-38.963c-0.579-0.609-1.34-1.178-2.296-1.681
						c-0.026-0.013-0.079-0.039-0.118-0.025c-11.087-4.243-10.578,21.667-30.516,26.833c-13.604,3.529-9.553,15.341-12.522,25.623
						c-0.268,0.942-0.587,1.858-0.999,2.761c-1.67,3.798-4.74,7.266-10.544,9.813c-22.268,9.778-8.589,29.93-19.632,37.514
						c-0.948,0.672-1.753,1.383-2.439,2.119C341.181,237.486,340.574,238.326,340.123,239.243z"/>
				</g>
				<path style="opacity:0.5;fill:#DEF5FF;" d="M340.123,239.243c5.402,1.45,13.464,4.37,16.384,9.284
					c1.163,2.002,1.348,4.142,0.516,6.498l-8.24,16.442c-0.207,0.289-0.44,0.564-0.66,0.879l0.17,0.116l-9.385,18.774l2.62,1.287
					l9.784-19.586c0.855-0.946,1.882-1.514,3.199-1.746c3.547-0.599,8.43,1.377,12.624,3.762c0.621-0.801,1.295-1.51,2.008-2.233
					c-4.601-2.683-10.454-5.201-15.135-4.411c-0.143,0.027-0.273,0.093-0.43,0.147l20.122-40.233
					c1.755-2.976,3.82-4.465,6.339-4.561c5.547-0.235,12.408,6.388,16.608,11.411c0.634-0.762,1.242-1.536,1.798-2.402
					c-4.199-4.958-11.626-12.216-18.53-11.932c-0.966,0.046-1.878,0.248-2.75,0.568l17.199-34.416
					c6.918-11.237,18.204-8.457,23.165-6.508c0.111-0.954,0.13-1.985,0.005-3.055c-4.489-1.522-12.175-3.021-18.922,1.112
					l22.361-44.726c-0.579-0.609-1.34-1.178-2.296-1.681c-0.026-0.013-0.079-0.039-0.118-0.025l-32.455,64.876
					c-0.17-1.905-0.666-3.677-1.604-5.276c-2.023-3.628-5.602-5.809-8.98-7.143c-0.268,0.942-0.587,1.858-0.999,2.761
					c2.867,1.116,5.817,2.923,7.456,5.809c2.129,3.81,1.629,8.866-1.526,15.089l0.026,0.013l-20.508,41.019
					c-0.227-0.729-0.558-1.445-0.968-2.134c-3.237-5.46-11.288-8.667-17.096-10.35C341.181,237.486,340.574,238.326,340.123,239.243
					z"/>
			</g>
		</g>
	</g>
</g>
<g id="OBJECTS">
	<g>
		<path style="fill:#024442;" d="M375.876,341.979c-2.254-30.205-20.665-69.083-20.665-69.083H319.05
			c0.008,0.169,0.025,0.331,0.025,0.504v0.422l-0.049-0.422c0-0.174,0.017-0.336,0.025-0.504h-36.161
			c0,0-18.411,38.878-20.665,69.083l56.801,28.579l0.049-0.467v0.467L375.876,341.979z"/>
		<g>
			<path style="fill:#FFBDA8;" d="M341.878,128.529c-2.581-2.636-5.043-1.098-6.263,0.026l-0.906-7.25
				c-1.461-11.686-12.118-19.975-23.804-18.514c-11.686,1.461-19.975,12.118-18.514,23.804l0.906,7.25
				c-1.46-0.788-4.225-1.673-6.077,1.517c-2.491,4.289,3.39,12.302,7.944,11.696c2.73,10.098,12.544,16.904,23.221,15.57h0
				c10.677-1.335,18.513-10.347,18.674-20.806C341.62,141.288,345.347,132.074,341.878,128.529z"/>
			<g>
				<g>
					<path style="fill:#2E150C;" d="M315.382,146.994c1.818-0.274,3.551-0.623,5.15-1.291c0.798-0.332,1.53-0.779,2.214-1.303
						c0.69-0.53,1.231-1.213,1.803-1.948c-0.228,0.887-0.655,1.772-1.324,2.46c-0.656,0.695-1.47,1.238-2.342,1.617
						c-0.882,0.355-1.804,0.582-2.736,0.658C317.22,147.264,316.28,147.231,315.382,146.994z"/>
				</g>
				<g>
					<path style="fill:#2E150C;" d="M320.416,148.327c0.668-0.356,1.346-0.605,1.97-0.96c0.324-0.151,0.628-0.336,0.916-0.539
						c0.289-0.202,0.556-0.432,0.799-0.725c-0.074,0.378-0.306,0.712-0.575,0.988c-0.27,0.282-0.604,0.48-0.932,0.673
						C321.908,148.093,321.18,148.33,320.416,148.327z"/>
				</g>
				<g>
					<path style="fill:#2E150C;" d="M314.793,130.163c0.424,1.145,0.716,2.317,0.866,3.533c0.149,1.211,0.151,2.475-0.115,3.715
						c-0.268,1.245-0.732,2.264-0.641,3.275c0.044,0.494,0.192,0.98,0.551,1.318c0.355,0.35,0.903,0.589,1.499,0.427
						c-0.459,0.448-1.267,0.44-1.875,0.118c-0.64-0.336-1.051-1.012-1.211-1.678c-0.341-1.383,0.142-2.681,0.358-3.74
						c0.232-1.091,0.335-2.226,0.386-3.391C314.663,132.574,314.664,131.379,314.793,130.163z"/>
				</g>
				<g>
					<path style="fill:#2E150C;" d="M288.825,138.157c-0.066-0.728,0.056-1.584,0.693-2.202c0.304-0.3,0.753-0.518,1.239-0.523
						c0.485-0.015,0.929,0.175,1.291,0.409c0.742,0.483,1.2,1.162,1.617,1.798c0.414,0.634,0.759,1.269,1.141,1.904
						c0.189,0.315,0.088,0.723-0.227,0.912c-0.266,0.16-0.6,0.112-0.811-0.097l-0.022-0.023c-0.447-0.444-1.077-0.751-1.716-0.764
						c-0.32-0.007-0.538,0.032-0.71,0.176c-0.184,0.145-0.319,0.412-0.375,0.697c-0.108,0.559,0.214,1.267,0.732,1.805
						c0.501,0.534,1.2,0.998,2.033,0.872c-0.754,0.455-1.771,0.148-2.48-0.349c-0.707-0.498-1.395-1.315-1.366-2.422
						c0.016-0.526,0.216-1.061,0.629-1.48c0.422-0.435,1.06-0.604,1.549-0.593c0.996,0.009,1.978,0.401,2.665,1.135l-1.061,0.792
						c-0.349-0.643-0.726-1.292-1.052-1.931c-0.335-0.619-0.697-1.21-1.146-1.61c-0.46-0.398-0.99-0.554-1.541-0.212
						C289.359,136.758,289.027,137.443,288.825,138.157z"/>
				</g>
				<g>
					<path style="fill:#2E150C;" d="M341.009,131.634c-0.371-0.642-0.862-1.225-1.471-1.39c-0.618-0.196-1.093,0.086-1.441,0.585
						c-0.337,0.498-0.541,1.16-0.714,1.843c-0.158,0.7-0.363,1.421-0.544,2.131l-1.223-0.507c0.485-0.881,1.341-1.503,2.303-1.756
						c0.471-0.131,1.131-0.124,1.647,0.193c0.504,0.304,0.829,0.773,0.974,1.279c0.3,1.066-0.164,2.027-0.727,2.683
						c-0.565,0.657-1.475,1.204-2.318,0.949c0.839-0.082,1.403-0.704,1.756-1.345c0.369-0.648,0.507-1.413,0.265-1.929
						c-0.124-0.262-0.321-0.488-0.535-0.583c-0.202-0.097-0.423-0.081-0.731,0.004c-0.616,0.17-1.151,0.623-1.475,1.163
						l-0.016,0.027c-0.189,0.315-0.597,0.417-0.912,0.228c-0.267-0.16-0.38-0.478-0.295-0.762c0.214-0.709,0.391-1.409,0.637-2.126
						c0.248-0.718,0.525-1.489,1.125-2.141c0.293-0.316,0.677-0.61,1.151-0.714c0.472-0.114,0.96-0.014,1.329,0.202
						C340.565,130.113,340.894,130.913,341.009,131.634z"/>
				</g>
				<g>
					<path style="fill:#2E150C;" d="M309.606,126.566c-0.694-0.063-1.557-0.111-2.336-0.08c-0.797,0.029-1.59,0.109-2.365,0.284
						c-0.78,0.169-1.517,0.473-2.227,0.853c-0.724,0.37-1.345,0.91-1.984,1.476l-0.039,0.035c-0.2,0.177-0.505,0.158-0.682-0.041
						c-0.144-0.162-0.158-0.395-0.051-0.571c0.486-0.799,1.06-1.603,1.826-2.212c0.735-0.644,1.6-1.156,2.518-1.509
						c0.913-0.369,1.878-0.614,2.853-0.698c0.992-0.073,1.916-0.058,2.969,0.191c0.623,0.147,1.009,0.771,0.862,1.395
						c-0.134,0.569-0.667,0.941-1.233,0.889L309.606,126.566z"/>
				</g>
				<g>
					<path style="fill:#2E150C;" d="M317.337,123.387c0.96-0.5,1.852-0.743,2.831-0.916c0.965-0.159,1.961-0.159,2.937-0.026
						c0.976,0.116,1.941,0.4,2.812,0.843c0.893,0.402,1.646,1.04,2.314,1.695c0.191,0.187,0.194,0.493,0.007,0.683
						c-0.152,0.155-0.382,0.186-0.566,0.092l-0.047-0.024c-0.759-0.391-1.493-0.762-2.286-0.942
						c-0.782-0.194-1.572-0.307-2.369-0.279c-0.794,0.021-1.583,0.139-2.362,0.307c-0.763,0.161-1.587,0.42-2.245,0.652
						l-0.104,0.037c-0.604,0.213-1.266-0.103-1.479-0.707C316.584,124.249,316.832,123.649,317.337,123.387z"/>
				</g>
				<g>
					<path style="fill:#2E150C;" d="M323.921,133.15c0.222,1.78-0.364,3.318-1.309,3.436c-0.945,0.118-1.892-1.229-2.115-3.009
						c-0.222-1.78,0.364-3.318,1.309-3.437C322.752,130.023,323.698,131.37,323.921,133.15z"/>
				</g>
				<g>
					<path style="fill:#2E150C;" d="M306.922,135.275c0.223,1.78,1.169,3.127,2.115,3.008c0.945-0.118,1.531-1.657,1.309-3.436
						c-0.223-1.78-1.169-3.127-2.115-3.008C307.285,131.956,306.699,133.495,306.922,135.275z"/>
				</g>
			</g>
			<g>
				<path style="fill:#F0B29E;" d="M323.9,111.653c0,0,2.619,7.261,4.523,8.689c1.904,1.428,3.095,10.832,4.761,10.475
					c1.666-0.357,2.5-2.5,2.5-2.5s-0.238-14.641-5.118-17.973C325.685,107.011,323.9,111.653,323.9,111.653z"/>
				<path style="fill:#F0B29E;" d="M299.956,114.565c0,0-0.509,7.702-1.945,9.601c-1.435,1.899,0.021,11.265-1.68,11.382
					c-1.7,0.118-3.093-1.711-3.093-1.711s-3.819-14.136-0.05-18.688C296.956,110.597,299.956,114.565,299.956,114.565z"/>
				<path style="fill:#2E150C;" d="M299.956,114.565c0,0,9.542,3.039,16.207,1.849l-3.69-2.738c0,0,5.594,2.381,11.427-2.023
					c5.832-4.404,8.808,1.19,8.808,1.19s-3.485-18.199-21.663-14.403c-20.235,4.226-19.521,23.092-19.521,23.092
					S292.754,112.248,299.956,114.565z"/>
			</g>
		</g>
		<g>
			<g>
				
					<rect x="309.89" y="158.097" transform="matrix(0.9923 -0.124 0.124 0.9923 -18.2211 40.8415)" style="fill:#FFBDA8;" width="18.021" height="17.326"/>
				<path style="fill:#F5A78E;" d="M327.069,159.522l0.49,3.923c-2.552,1.605-5.495,2.697-8.687,3.096
					c-3.192,0.399-6.313,0.065-9.182-0.863l-0.49-3.923c2.869,0.927,5.99,1.262,9.182,0.863
					C321.574,162.22,324.517,161.127,327.069,159.522z"/>
			</g>
			<g>
				<g>
					<path style="fill:#FFBDA8;" d="M435.963,249.016c-1.924,11.808-4.314,26.005-6.78,39.289
						c-2.733,14.731-5.552,28.319-7.913,36.289l-12.036-0.971c0,0,0.152-32.309,0.2-62.761c0.038-15.797,0.038-31.09-0.019-41.108
						c0,0-0.429-1.695-1.162-4.647c4.799,4.123,9.598,8.618,14.321,13.512c4.18,4.333,7.723,9.237,10.456,14.607
						C433.896,244.922,434.877,246.864,435.963,249.016z"/>
				</g>
				<path style="fill:#2B6DE5;" d="M357.03,182.316c0,0,43.837,19.45,72.097,49.779c1.93,2.071,3.345,4.558,4.136,7.277
					c2.821,9.695,6.922,35.171-8.307,78.319c0,0-14.283,1.428-17.616,0c-3.333-1.428,2.381-51.42-1.904-56.658
					c-4.285-5.237-57.61-46.659-58.562-57.61C345.92,192.473,357.03,182.316,357.03,182.316z"/>
			</g>
			<g>
				<path style="fill:#FFBDA8;" d="M298.121,186.036c0,0,1.076-6.765-4.697-6.553c-5.46,0.2-36.406,34.911-48.864,89.646
					c-1.338,5.878-1.831,11.905-1.39,17.917c1.45,19.772,5.35,69.605,9.338,91.816l-0.003,0c0,0-6.173,17.878-5.187,18.752
					c0.986,0.874,3.406-4.011,3.406-4.011s-1.869,8.85-1.136,9.254c0.733,0.403,4.008-7.825,4.008-7.825s-0.277,10.14,0.526,10.343
					c0.803,0.204,3.223-9.005,3.223-9.005s0.941,8.167,1.512,8.301c0.571,0.134,4.47-13.88,4.47-13.88s4.739,4.201,5.344,3.966
					c0.605-0.235-3.131-16.388-3.132-16.389c1.199-15.681,5.706-74.427,7.887-99.63
					C273.426,278.738,301.305,196.995,298.121,186.036z"/>
				<path style="fill:#2B6DE5;" d="M291.643,179.737c0,0-19.044,12.974-33.328,42.255c-14.283,29.281-17.854,59.276-17.854,59.276
					l9.522,88.081c0,0,13.331,4.047,17.616,0.238c4.285-3.809,7.856-90.7,7.856-90.7l23.806-78.559L291.643,179.737z"/>
			</g>
			<g>
				<path style="fill:#FFBDA8;" d="M353.958,260.597c1.41-20.364,5.54-59.677,1.279-70.863c-4.686-12.3-26-16.724-34.279-17.997
					h-3.328c-8.279,1.273-34.41,68.496-33,88.86c0.524,7.564-1.141,12.34-1.141,12.34h34.142h3.328h34.142
					C355.099,272.936,353.434,268.16,353.958,260.597z"/>
				<g>
					<path style="fill:#2B6DE5;" d="M355.801,272.82c0,0-37.97,16.07-73.8,0.47c0,0,1.91-12.85,1.43-21.18
						c-0.48-8.34,4.17-69.16,8.21-72.37c2.66-2.11,9.92-4.32,14.6-5.6c0,0,0,0,0.01,0c0.42-0.11,0.81-0.22,1.18-0.31
						c1.82-0.48,3.02-0.76,3.02-0.76s6.66,6.31,18.45,0.24c0,0,1.07,0.31,2.82,0.84c0.34,0.1,0.7,0.21,1.09,0.33
						c7.6,2.29,23.95,7.34,27.75,9.42C365.561,186.64,355.801,272.82,355.801,272.82z"/>
					<g>
						<g>
							<path style="opacity:0.5;fill:#2B6DE5;" d="M332.811,174.48c-3.75,3.79-7.86,5.75-12.23,5.83h-0.3
								c-6.31,0-11.49-3.85-14.03-6.17c0.42-0.11,0.81-0.22,1.18-0.31c2.59,2.22,7.33,5.48,12.86,5.48h0.27
								c3.95-0.08,7.69-1.81,11.16-5.16C332.061,174.25,332.421,174.36,332.811,174.48z"/>
						</g>
						<g>
							<polygon style="opacity:0.5;fill:#2B6DE5;" points="360.691,221.25 350.191,210.625 359.691,232.625 							"/>
						</g>
						<g>
							<polygon style="opacity:0.5;fill:#2B6DE5;" points="283.274,252.917 293.941,213.417 283.274,262.417 							"/>
						</g>
					</g>
				</g>
			</g>
		</g>
	</g>
	<g>
		<g>
			<g>
				<path style="fill:#E88C5D;" d="M285.271,284.84c-0.16,2.2-0.35,4.76-0.57,7.62c-1.75,22.87-5.22,64.42-8.78,84.09
					c0.41,1.18,6.12,17.84,5.17,18.68c-0.99,0.88-3.41-4.01-3.41-4.01s1.87,8.85,1.14,9.26c-0.73,0.4-4.01-7.83-4.01-7.83
					s0.28,10.14-0.53,10.35c-0.8,0.2-3.22-9.01-3.22-9.01s-0.94,8.17-1.51,8.3c-0.57,0.14-4.47-13.88-4.47-13.88
					s-4.74,4.2-5.35,3.97c-0.6-0.24,3.14-16.39,3.14-16.39h0.04c-1.2-15.66-5.71-74.29-7.89-99.44c0,0-17.98-81.11-14.8-92.04
					c0,0-10.97-7.24-5.2-7.03c5.21,0.19,33.67,31.79,47.06,82.2c0.64,2.39,1.24,4.81,1.8,7.28
					C285.221,272.83,285.721,278.84,285.271,284.84z"/>
				<path style="fill:#FF9775;" d="M285.271,284.84c-0.16,2.2-0.35,4.76-0.57,7.62c-8.67-0.57-15.51-7.78-15.51-16.59
					c0-7.89,5.5-14.5,12.89-16.19c0.64,2.39,1.24,4.81,1.8,7.28C285.221,272.83,285.721,278.84,285.271,284.84z"/>
			</g>
			<g>
				<path style="fill:#E88C5D;" d="M200.221,179.58c-1.21,9.89-44.9,60.5-56.62,72.63c-1.66,1.72-6.38,5.51-11.49,8.78
					c-6.91,4.42-14.54,7.87-16.29,3.93c-1.52-3.43-2.72-6.99-3.58-10.62c-0.51-2.14-0.91-4.3-1.18-6.49
					c-0.01-0.07-0.02-0.15-0.03-0.21c-1.17-9.84-3.19-27.17-4.95-44.87c-1.77-17.69-3.28-35.75-3.45-47.04
					c0,0-9.47-16.37-8.67-17.41c0.77-1.01,3.87,2.97,4.1,3.26c-0.19-0.45-3.5-8.33-2.88-8.84c0.62-0.52,5.14,6.47,5.42,6.89
					c-0.11-0.5-2.18-9.89-1.45-10.23c0.75-0.35,4.89,8.22,4.89,8.22s-0.64-8.19-0.11-8.44c0.54-0.24,7.04,12.77,7.04,12.77
					s3.85-5.03,4.49-4.91c0.23,0.04,0.3,2.16,0.3,4.88c0,4.92-0.24,11.8-0.24,11.8c2.76,10.02,10.52,38.15,17.48,63.12
					c29.67-32.57,61.12-46.77,65.48-45.09C203.871,173.78,200.221,179.58,200.221,179.58z"/>
				<path style="fill:#FF9775;" d="M132.111,260.99c-6.91,4.42-14.54,7.87-16.29,3.93c-1.52-3.43-2.72-6.99-3.58-10.62
					c1.81-0.68,3.77-1.05,5.82-1.05C123.981,253.25,129.171,256.34,132.111,260.99z"/>
			</g>
			<path style="fill:#E88C5D;" d="M243.817,258.216c-2.376-26.716,5.54-59.676,1.278-70.863c-4.686-12.3-26-16.724-34.279-17.997
				h-3.328c-8.279,1.273-29.593,5.697-34.279,17.997c-4.262,11.187-0.132,50.499,1.278,70.863c0.524,7.564-1.141,12.34-1.141,12.34
				h34.142h3.328h34.142C244.958,270.556,244.488,265.768,243.817,258.216z"/>
			<g>
				<rect x="200.142" y="156.704" style="fill:#E88C5D;" width="18.021" height="17.326"/>
				<path style="fill:#DE7038;" d="M218.156,159.199v3.954c-2.732,1.276-5.787,1.995-9.004,1.995c-3.217,0-6.272-0.719-9.004-1.995
					v-3.954c2.732,1.276,5.787,1.995,9.004,1.995C212.369,161.193,215.424,160.475,218.156,159.199z"/>
			</g>
			<g>
				<g>
					<path style="fill:#AB9909;" d="M274.501,232.7c-4.76,8.1-25.47,15-25.47,15l-5-18.57l1.66,25.74
						c0.6,9.32,3.61,18.29,8.52,26.24c12.89,20.88,17.28,48.33,17.28,48.33h-125.38c3.49-24.76,23.05-50.79,26.86-58.53
						c3.81-7.73-1.67-49.27-1.67-49.27l-9.04,10.35c-12.14-3.69-15.59-29.76-15.59-29.76c11.11-12.05,26.81-20.81,36.25-25.4
						c0.74-0.36,1.45-0.69,2.1-1c3.72-1.73,6.04-2.64,6.04-2.64h36.07c2.55,0.12,5.3,1.07,8.16,2.64c0.56,0.31,1.12,0.64,1.69,1
						C255.981,188.69,278.531,225.86,274.501,232.7z"/>
					<g>
						<path style="opacity:0.5;fill:#AB9909;" d="M236.981,176.83h-54.06c0.74-0.36,1.45-0.69,2.1-1h50.27
							C235.851,176.14,236.411,176.47,236.981,176.83z"/>
					</g>
				</g>
				<g>
					<path style="fill:#FFFFFF;" d="M272.761,328.48h-58.72l-47.62-143.94c0,0,0.99-0.53,2.57-1.37c0.28-0.15,0.59-0.31,0.91-0.48
						c5.03-2.66,14.18-7.43,18.28-9.16c0.36-0.15,0.67-0.27,0.94-0.37c0.25-0.09,0.46-0.16,0.63-0.21c0,0,51.9,86.66,62.37,97.45
						C252.121,270.4,272.761,308.8,272.761,328.48z"/>
					<g>
						<g>
							<path style="fill:#CCE8F2;" d="M248.651,268.24c-0.09,0.12-0.24,0.18-0.38,0.18c-0.11,0-0.23-0.04-0.32-0.12
								c-20.51-17.44-54.51-84.28-59.77-94.77c0.36-0.15,0.67-0.27,0.94-0.37c5.38,10.71,39.17,77.1,59.48,94.38
								C248.811,267.71,248.831,268.03,248.651,268.24z"/>
						</g>
						<g>
							<path style="fill:#CCE8F2;" d="M210.811,292.34c-0.1,0.11-0.24,0.16-0.37,0.16c-0.12,0-0.25-0.04-0.34-0.13
								c-10.99-10.29-36.92-95.32-41.11-109.2c0.28-0.15,0.59-0.31,0.91-0.48c3.86,12.79,30.17,98.91,40.88,108.94
								C210.981,291.82,210.991,292.14,210.811,292.34z"/>
						</g>
						<g>
							<path style="fill:#CCE8F2;" d="M212.941,288.75c-0.196,0-0.383-0.116-0.462-0.31c-3.572-8.679-34.789-84.965-30.996-91.108
								c0.217-0.352,0.536-0.553,0.921-0.581c0.043-0.003,0.087-0.005,0.13-0.005c3.523,0,8.109,10.474,15.196,27.621
								c5.1,12.339,10.88,26.324,14.049,26.89c0.262,0.045,0.335-0.039,0.374-0.087c1.597-1.929-4.234-17.214-8.492-28.374
								c-5.517-14.462-7.484-20.024-6.24-21.047c0.229-0.189,0.637-0.327,1.284,0.077c6.063,3.789,37.844,77.586,39.194,80.727
								c0.109,0.254-0.008,0.548-0.262,0.656c-0.252,0.11-0.547-0.008-0.657-0.262c-11.393-26.496-34.165-77.373-38.806-80.273
								c-0.054-0.034-0.097-0.057-0.132-0.073c-0.404,1.603,3.444,11.691,6.552,19.839c6.219,16.304,10.159,27.156,8.328,29.369
								c-0.22,0.266-0.628,0.556-1.321,0.434c-3.458-0.618-7.898-10.798-14.797-27.492c-5.234-12.664-11.161-27.004-14.255-27.004
								c-0.024,0-0.048,0.001-0.072,0.002c-0.034,0.003-0.081,0.006-0.144,0.109c-2.667,4.319,17.119,56.31,31.069,90.202
								c0.105,0.256-0.017,0.548-0.272,0.652C213.069,288.738,213.005,288.75,212.941,288.75z"/>
						</g>
					</g>
				</g>
			</g>
		</g>
		<g>
			<g>
				<path style="fill:#E88C5D;" d="M236.694,130.282c-2.234-2.936-4.868-1.715-6.218-0.751v-7.306
					c0-11.777-9.547-21.324-21.324-21.324c-11.777,0-21.324,9.547-21.324,21.324v7.306c-1.351-0.963-3.984-2.184-6.218,0.751
					c-3.008,3.954,1.853,12.654,6.452,12.591c1.459,10.355,10.331,18.33,21.089,18.33c10.758,0,19.63-7.975,21.089-18.33
					C234.842,142.936,239.702,134.235,236.694,130.282z"/>
				<g>
					<g>
						<path style="fill:#2E150C;" d="M211.892,149.585c0.707-0.27,1.411-0.433,2.074-0.708c0.34-0.11,0.665-0.255,0.975-0.421
							c0.312-0.165,0.605-0.359,0.883-0.62c-0.12,0.366-0.392,0.668-0.693,0.91c-0.303,0.247-0.659,0.401-1.008,0.552
							C213.401,149.538,212.649,149.683,211.892,149.585z"/>
					</g>
					<g>
						<path style="fill:#2E150C;" d="M209.617,128.543c0.279,1.189,0.423,2.388,0.421,3.613c-0.003,1.221-0.157,2.475-0.575,3.672
							c-0.421,1.202-1.007,2.156-1.042,3.17c-0.018,0.495,0.069,0.996,0.383,1.377c0.309,0.391,0.823,0.697,1.435,0.609
							c-0.511,0.387-1.312,0.28-1.875-0.115c-0.594-0.413-0.918-1.134-0.993-1.816c-0.167-1.415,0.473-2.642,0.819-3.667
							c0.366-1.054,0.608-2.168,0.803-3.317C209.189,130.919,209.338,129.734,209.617,128.543z"/>
					</g>
					<g>
						<path style="fill:#2E150C;" d="M182.858,133.255c0.024-0.73,0.251-1.564,0.96-2.1c0.339-0.26,0.812-0.421,1.294-0.366
							c0.483,0.045,0.901,0.289,1.231,0.566c0.677,0.572,1.047,1.302,1.382,1.984c0.332,0.68,0.595,1.353,0.896,2.03
							c0.149,0.336-0.003,0.729-0.339,0.877c-0.284,0.126-0.609,0.037-0.793-0.197l-0.02-0.025
							c-0.388-0.496-0.975-0.879-1.608-0.971c-0.317-0.047-0.538-0.035-0.726,0.087c-0.2,0.121-0.367,0.369-0.458,0.645
							c-0.176,0.542,0.056,1.283,0.502,1.881c0.43,0.592,1.067,1.139,1.91,1.117c-0.805,0.358-1.775-0.073-2.417-0.654
							c-0.64-0.582-1.221-1.478-1.055-2.572c0.081-0.52,0.346-1.026,0.808-1.39c0.473-0.379,1.127-0.468,1.611-0.396
							c0.987,0.132,1.913,0.643,2.503,1.457l-1.151,0.655c-0.267-0.682-0.56-1.372-0.804-2.047c-0.256-0.656-0.541-1.287-0.937-1.74
							c-0.408-0.452-0.913-0.673-1.502-0.402C183.561,131.932,183.147,132.572,182.858,133.255z"/>
					</g>
					<g>
						<path style="fill:#2E150C;" d="M235.447,133.255c-0.289-0.683-0.703-1.322-1.287-1.561c-0.589-0.271-1.095-0.05-1.502,0.402
							c-0.396,0.453-0.681,1.084-0.937,1.74c-0.243,0.675-0.537,1.365-0.804,2.047l-1.151-0.655
							c0.591-0.814,1.517-1.325,2.503-1.457c0.484-0.072,1.138,0.017,1.611,0.396c0.462,0.365,0.727,0.87,0.808,1.39
							c0.166,1.095-0.414,1.991-1.055,2.572c-0.642,0.582-1.613,1.012-2.417,0.654c0.842,0.022,1.479-0.525,1.91-1.117
							c0.447-0.598,0.679-1.34,0.502-1.881c-0.091-0.276-0.258-0.524-0.458-0.645c-0.189-0.121-0.409-0.133-0.726-0.087
							c-0.632,0.093-1.22,0.476-1.608,0.971l-0.019,0.025c-0.226,0.289-0.644,0.34-0.933,0.113
							c-0.245-0.192-0.318-0.521-0.198-0.793c0.3-0.677,0.563-1.35,0.896-2.03c0.335-0.682,0.705-1.413,1.382-1.984
							c0.33-0.277,0.747-0.521,1.23-0.566c0.482-0.055,0.955,0.105,1.294,0.366C235.196,131.69,235.423,132.525,235.447,133.255z"/>
					</g>
					<g>
						<path style="fill:#2E150C;" d="M204.916,124.331c-0.681-0.149-1.532-0.304-2.308-0.369c-0.794-0.07-1.591-0.09-2.382-0.012
							c-0.794,0.071-1.564,0.281-2.316,0.57c-0.765,0.277-1.447,0.737-2.151,1.219l-0.043,0.03c-0.22,0.151-0.521,0.094-0.671-0.126
							c-0.123-0.179-0.108-0.412,0.02-0.573c0.582-0.733,1.25-1.459,2.087-1.969c0.809-0.548,1.731-0.949,2.685-1.185
							c0.952-0.253,1.94-0.376,2.917-0.338c0.993,0.051,1.908,0.18,2.922,0.558c0.6,0.223,0.906,0.891,0.683,1.491
							c-0.204,0.548-0.779,0.851-1.334,0.729L204.916,124.331z"/>
					</g>
					<g>
						<path style="fill:#2E150C;" d="M212.981,122.135c1.014-0.377,1.93-0.507,2.923-0.558c0.977-0.038,1.966,0.085,2.917,0.338
							c0.954,0.236,1.876,0.637,2.685,1.185c0.836,0.51,1.505,1.236,2.087,1.969c0.166,0.209,0.131,0.513-0.078,0.679
							c-0.17,0.135-0.402,0.137-0.573,0.021l-0.043-0.03c-0.704-0.482-1.387-0.941-2.151-1.219c-0.752-0.289-1.521-0.5-2.316-0.57
							c-0.791-0.078-1.588-0.058-2.382,0.012c-0.777,0.065-1.627,0.22-2.308,0.369l-0.108,0.024
							c-0.625,0.137-1.243-0.259-1.38-0.885C212.127,122.898,212.448,122.333,212.981,122.135z"/>
					</g>
					<g>
						<path style="fill:#2E150C;" d="M218.303,132.639c0,1.794-0.772,3.248-1.725,3.248c-0.953,0-1.725-1.454-1.725-3.248
							c0-1.794,0.772-3.248,1.725-3.248C217.531,129.392,218.303,130.846,218.303,132.639z"/>
						<path style="fill:#2E150C;" d="M217.137,130.114c0,0,1.46-0.096,2.284-0.722c0,0-0.674,1.737-1.984,1.791L217.137,130.114z"/>
					</g>
					<g>
						<ellipse style="fill:#2E150C;" cx="202.897" cy="132.639" rx="1.725" ry="3.248"/>
						<path style="fill:#2E150C;" d="M202.338,130.114c0,0-1.46-0.096-2.284-0.722c0,0,0.674,1.737,1.984,1.791L202.338,130.114z"/>
					</g>
					<path style="fill:#FF9775;" d="M202.338,142.333c0,3.006-2.437,5.442-5.442,5.442c-3.006,0-5.442-2.437-5.442-5.442
						c0-3.006,2.437-5.442,5.442-5.442C199.901,136.891,202.338,139.327,202.338,142.333z"/>
					<path style="fill:#FF9775;" d="M229.479,142.333c0,3.006-2.437,5.442-5.442,5.442c-3.006,0-5.442-2.437-5.442-5.442
						c0-3.006,2.437-5.442,5.442-5.442C227.043,136.891,229.479,139.327,229.479,142.333z"/>
					<g>
						<path style="fill:#2E150C;" d="M216.827,142.557c-0.067,0.867-0.276,2-0.809,3.019c-0.638,1.219-1.743,2.276-3.657,2.542
							c-0.352,0.048-0.686,0.067-1.009,0.057c-4.399-0.095-6.475-4.98-6.475-4.98l1.257-0.219l10.713-1.847
							C216.846,141.129,216.903,141.719,216.827,142.557z"/>
						<path style="fill:#FFFFFF;" d="M216.827,142.557l-10.046,1.752c-0.229,0.038-0.438-0.105-0.476-0.333l-0.171-1l10.713-1.847
							C216.846,141.129,216.903,141.719,216.827,142.557z"/>
						<path style="fill:#FF9775;" d="M216.018,145.576c-0.638,1.219-1.743,2.276-3.657,2.542c-0.352,0.048-0.686,0.067-1.009,0.057
							c-0.057-0.209-0.086-0.438-0.086-0.667c0-1.524,1.238-2.761,2.771-2.761C214.808,144.747,215.513,145.062,216.018,145.576z"/>
					</g>
				</g>
			</g>
			<path style="fill:#2E150C;" d="M160.315,190.331l6.428-4.523l-0.397-1.19l23.488-11.744l0.238,0.714
				c1.984-0.952,10.078-2.857,10.078-2.857v-11.506c-9.364-4.126-12.458-16.188-12.458-16.188
				c-6.666-1.666-8.094-10.792-5.634-13.411c2.46-2.619,5.912,0,5.912,0c12.498-3.214,21.425-16.307,21.425-16.307
				s10.441,20.198,20.796,16.389c0,0,4.001-2.78,6.461,0.473c2.46,3.253-0.238,10.871-5.872,12.617c0,0-2.539,12.062-12.538,16.346
				l-0.079,11.506l8.253,2.539c0,0,8.729,1.19,16.823,8.332c4.369-6.096,5.374-15.15,2.446-22.055
				c-0.734-1.731-1.688-3.364-2.372-5.115c-3.091-7.908-0.313-16.723,0.455-25.179c0.274-3.013,0.273-6.126-0.755-8.972
				c-1.028-2.846-3.241-5.401-6.166-6.177c-0.195-0.052-1.089-2.861-1.29-3.235c-0.557-1.037-1.235-2.019-2.012-2.904
				c-3.659-4.166-9.119-7.4-14.27-9.335c-4.402-1.654-9.254-2.325-13.853-1.343c-4.015,0.857-7.648,2.935-10.82,5.491
				c-3.056,2.462-6.555,5.498-8.655,8.836c-4.877,7.754-12.751,11.519-15.605,20.223c-2.361,7.202,2.227,14.907,1.612,22.461
				c-0.275,3.379-1.628,6.662-3.815,9.252c-3.168,3.754-8.133,6.291-9.555,10.992C157.218,178.974,157.941,186.258,160.315,190.331z
				"/>
			<g>
				<g>
					<path style="fill:#FFA901;" d="M211.24,120.818c0,0.887-0.719,1.607-1.607,1.607c-0.887,0-1.607-0.719-1.607-1.607
						c0-0.888,0.719-4.583,1.607-4.583C210.52,116.235,211.24,119.93,211.24,120.818z"/>
					<g>
						<g>
							<path style="fill:#FFA901;" d="M190.851,151.825c0,2.235-1.812,4.047-4.047,4.047c-2.235,0-4.047-1.812-4.047-4.047
								c0-2.235,1.812-8.451,4.047-8.451C189.039,143.374,190.851,149.59,190.851,151.825z"/>
							<circle style="fill:#FFA901;" cx="186.804" cy="142.63" r="1.934"/>
						</g>
						<g>
							<path style="fill:#FFA901;" d="M235.526,151.825c0,2.235-1.812,4.047-4.047,4.047c-2.235,0-4.047-1.812-4.047-4.047
								c0-2.235,1.812-8.451,4.047-8.451C233.714,143.374,235.526,149.59,235.526,151.825z"/>
							<circle style="fill:#FFA901;" cx="231.479" cy="142.63" r="1.934"/>
						</g>
					</g>
				</g>
			</g>
		</g>
	</g>
	<g>
		<g>
			<path style="fill:#024442;" d="M300.451,432.2h-114.74c-1.91-19.76,14.99-64.99,14.99-64.99h82.37
				C296.881,390.3,300.451,432.2,300.451,432.2z"/>
			<path style="fill:#1E2224;" d="M218.681,369.86c-2.05,9.05-12.57,21.13-13.77,22.48c-0.32,2.18-4.09,28.47-2.93,39.86h-1.01
				c-1.13-11.51,2.47-36.72,2.93-39.86c-3.84-3.24,0.19-20.79,0.68-22.83c0.06-0.27,0.33-0.44,0.6-0.37
				c0.27,0.06,0.44,0.33,0.37,0.6c-1.25,5.26-3.78,19-1.17,21.7c1.85-2.14,11.44-13.51,13.32-21.8c0.06-0.27,0.33-0.44,0.6-0.38
				C218.571,369.32,218.741,369.59,218.681,369.86z"/>
		</g>
		<g>
			<g>
				<path style="fill:#B36138;" d="M361.536,299.721c18.05,13.022,64.918,47.192,80.737,62.19l-6.737,10.944
					c0,0-70.515-36.336-98.41-50.347c0,0-89.641-20.338-97.796-29.337c0,0-6.732-2.799-3.319-7.913
					c3.228-4.836,51.952-13.52,108.511,5.727C350.596,293.052,356.333,295.967,361.536,299.721z"/>
				<path style="fill:#B36138;" d="M439.544,359.406c0,0,19.647,4.38,19.889,5.761c0.242,1.381-5.535,0.849-5.535,0.849
					s9.064,3.244,9.021,4.133c-0.043,0.889-9.328-0.733-9.328-0.733s9.345,5.406,9.081,6.247c-0.263,0.841-9.96-2.103-9.96-2.103
					s6.877,5.409,6.68,6.002c-0.197,0.593-15.074-3.693-15.074-3.693s1.164,6.639,0.613,7.056
					c-0.551,0.417-13.107-11.982-13.107-11.982L439.544,359.406z"/>
				<path style="fill:#FFA901;" d="M426.141,345.78c0,0-10.47,15.24-14.76,16.67c-4.28,1.42-75.46-38.33-75.46-38.33
					s-27.46-5.63-51.77-11.98c-15.67-4.09-30.03-8.47-34.88-11.83c-5.08-3.52-5.34-7.52-3.87-11.02c0.18-0.43,0.38-0.86,0.61-1.27
					c2.42-4.41,7.14-7.73,7.14-7.73s1.15-0.1,3.18-0.23c0.41-0.03,0.86-0.06,1.35-0.09c10.73-0.64,38.45-1.63,60.15,3.44
					c27.49,6.43,38.56,10.71,45.94,17.14C371.151,306.98,426.141,345.78,426.141,345.78z"/>
			</g>
			<g>
				<path style="fill:#B36138;" d="M220.512,298.417c1.924-4.83,3.721-9.762,5.969-14.455c-1.358-0.686-2.927-0.947-4.475-0.668
					c-34.043,6.153-71.451,42.967-71.451,42.967l-15.375-41.182c-1.374-3.68-5.261-5.774-9.09-4.896l-1.605,0.368
					c-3.961,0.908-6.568,4.69-6.01,8.715c2.754,19.859,11.486,74.626,24.461,78.259c10.655,2.983,46.917-22.932,69.793-44.225
					C214.708,314.802,217.268,306.561,220.512,298.417z"/>
				<path style="fill:#FFA901;" d="M233.561,280.91l-0.97,2.21l-0.47,1.06l-18.44,41.84c0,0-6.32,4.91-15.27,11.36
					c-18.45,13.29-48.09,33.15-56.74,30.18c-12.86-4.4-25.48-65.58-23.1-70.46c2.39-4.88,20-6.55,20-6.55l12.86,32.74
					c0,0,23.92-18.57,40.82-30c13.11-8.86,30.72-11.42,37.97-12.12c0.25-0.03,0.49-0.05,0.71-0.07c0.13-0.01,0.26-0.03,0.38-0.04
					C232.751,280.94,233.561,280.91,233.561,280.91z"/>
			</g>
			<g>
				
					<rect x="234.331" y="266.535" transform="matrix(0.9952 0.0979 -0.0979 0.9952 28.1793 -22.5633)" style="fill:#B36138;" width="19.18" height="18.439"/>
				<path style="opacity:0.5;fill:#A35933;" d="M254.099,270.159l-0.36,3.655c-3.026,1.067-6.337,1.51-9.745,1.175
					c-3.407-0.335-6.568-1.415-9.329-3.052l0.36-3.655c2.76,1.636,5.922,2.716,9.329,3.051
					C247.761,271.669,251.072,271.226,254.099,270.159z"/>
			</g>
			<g>
				<path style="fill:#FFA901;" d="M285.931,369.83c-0.6,5.47-79.27,12.02-86.42,0c-2.54-4.27-2.5-15.64-1.47-28.3
					c0.03-0.33,0.06-0.67,0.08-1c0.09-1.04,0.19-2.1,0.29-3.15c0.36-3.75,0.78-7.55,1.24-11.26c0.05-0.41,0.1-0.81,0.16-1.22
					c0.05-0.42,0.1-0.83,0.15-1.24c0.05-0.34,0.09-0.68,0.14-1.02c0.56-4.36,1.16-8.54,1.72-12.27v-0.01
					c0.35-2.38,0.69-4.57,0.99-6.53c0.24-1.56,0.46-2.96,0.65-4.18c0.65-4.18,3.18-7.82,6.88-9.86c5.49-3.03,13.76-7.2,19.92-8.56
					c0.23-0.05,0.45-0.09,0.67-0.13c0.12-0.03,0.25-0.05,0.37-0.07c0.85-0.15,1.64-0.23,2.38-0.24c0,0,6.97,5.69,19.47-0.5
					c0,0,0.97,0.17,2.54,0.54c0.34,0.08,0.72,0.17,1.11,0.27c5.49,1.38,15.81,4.65,21.15,10.76c4.54,5.19,5.85,12.82,6.2,20.28
					c0.14,2.77,0.14,5.51,0.12,8.09c0,0.34,0,0.67-0.01,1c-0.01,1.6-0.02,3.13,0,4.55c0.01,1.01,0.04,2.2,0.1,3.54
					c0.01,0.44,0.03,0.9,0.04,1.38c0.14,3.34,0.35,7.38,0.58,11.59c0.01,0.34,0.03,0.67,0.05,1.01
					C285.621,354.43,286.291,366.46,285.931,369.83z"/>
				<g>
					<g>
						<path style="opacity:0.5;fill:#FFA901;" d="M284.271,320.23c0,0.34,0,0.67-0.01,1c-35.42-4.05-74.72,1.05-84.3,2.43
							c0.05-0.34,0.09-0.68,0.14-1.02C210.181,321.19,249.101,316.22,284.271,320.23z"/>
					</g>
					<g>
						<path style="opacity:0.5;fill:#FFA901;" d="M285.031,343.3c-9.18,0.59-18.7,0.82-27.97,0.82c-26.34,0-50.58-1.86-59.02-2.59
							c0.03-0.33,0.06-0.67,0.08-1c11.38,0.98,51.64,4.04,86.86,1.76C284.991,342.63,285.011,342.96,285.031,343.3z"/>
					</g>
					<g style="opacity:0.5;">
						<g>
							<path style="fill:#FFA901;" d="M284.401,330.7l-5.29-4.78l-13.27,12l-13.29-12l-13.28,12l-13.27-12l-13.28,12l-13.07-11.8
								c0.05-0.41,0.1-0.81,0.16-1.22l12.91,11.68l13.28-12l13.27,12l13.28-12l13.29,12l13.27-12l5.25,4.74
								C284.371,329.76,284.391,330.22,284.401,330.7z"/>
						</g>
					</g>
					<g style="opacity:0.5;">
						<g>
							<polygon style="fill:#FFA901;" points="201.816,310.375 198.004,305.125 206.379,302.875 							"/>
						</g>
					</g>
					<g>
						<path style="opacity:0.5;fill:#FFA901;" d="M257.681,279.97c-0.26,0.34-0.55,0.72-0.88,1.13c-2.25,2.72-6.2,6.62-11.4,8.19
							c-0.6,0.18-1.23,0.34-1.87,0.45c-0.62,0.11-1.21,0.16-1.79,0.16c-4.36,0-7.57-2.94-9.62-5.72c-0.79-1.07-1.41-2.11-1.86-2.95
							c-0.01-0.02-0.02-0.04-0.04-0.06c0.25-0.03,0.49-0.05,0.71-0.07c0.12-0.03,0.25-0.05,0.37-0.07c0,0.01,0,0.02,0.01,0.03
							c0.34,0.62,0.76,1.33,1.28,2.06c2.12,3.06,5.73,6.54,10.76,5.64c0.92-0.17,1.81-0.42,2.66-0.74c4.25-1.56,7.6-4.77,9.68-7.19
							c0.23-0.27,0.44-0.53,0.64-0.77C256.741,280.03,257.191,280,257.681,279.97z"/>
					</g>
				</g>
			</g>
		</g>
		<g>
			<path style="fill:#B36138;" d="M276.749,241.464c-2.06-3.342-4.977-2.323-6.508-1.444l0.762-7.738
				c1.228-12.473-7.889-23.58-20.363-24.808h0c-12.473-1.227-23.58,7.889-24.808,20.363l-0.761,7.738
				c-1.33-1.161-3.992-2.729-6.664,0.148c-3.593,3.868,0.631,13.567,5.5,14.007c0.463,11.123,9.052,20.493,20.449,21.614
				c11.397,1.122,21.648-6.394,24.27-17.214C273.486,254.647,279.519,245.958,276.749,241.464z"/>
			<path style="fill:#A15732;" d="M226.059,237.525c0,0,3.987-6.963,4.702-12.022c0.714-5.059,3.333-8.035,5.773-6.904
				c2.44,1.131,8.868,5.118,13.093,5.059c4.225-0.059,12.795-3.035,14.224-1.25c1.428,1.785-1.666,6.606,0.417,10.474
				c2.083,3.868,4.94,7.677,4.94,7.677l1.035-0.54c0,0,1.702-10.827,0.869-14.398c-0.833-3.571-5.951-17.081-19.759-18.449
				c-13.807-1.369-22.318,8.332-23.984,12.855c-1.666,4.523-2.398,15.463-2.398,15.463L226.059,237.525z"/>
			<g>
				<path style="fill:#2E150C;" d="M224.97,235.491c0,0,1.763,8.164-1.015,14.274c-2.777,6.11,0.714,22.06,8.649,26.98
					c7.145,4.43,23.488,3.174,29.043-1.428c5.555-4.602,6.904-21.266,6.904-21.266s-2.674-9.507,1.69-14.03
					c0,0-4.256,1.872-7.49,5.031c-3.268,3.193-19.477,9.949-26.213,5.493l0,0c-2.886-1.653-5.275-4.051-6.915-6.945L224.97,235.491z
					"/>
				<g>
					<g>
						<path style="fill:#2E150C;" d="M251.781,227.893c1.016-0.528,2.022-0.697,3.084-0.73c1.055-0.035,2.114,0.19,3.127,0.535
							c1.016,0.339,1.973,0.891,2.789,1.58c0.832,0.676,1.46,1.561,1.92,2.473c0.149,0.296,0.03,0.658-0.267,0.807
							c-0.198,0.1-0.426,0.08-0.599-0.034l-0.061-0.04c-0.776-0.509-1.455-1.019-2.237-1.345c-0.75-0.361-1.521-0.632-2.325-0.801
							c-0.798-0.188-1.619-0.258-2.452-0.364c-0.824-0.095-1.718-0.146-2.552-0.294l-0.158-0.028
							c-0.511-0.09-0.851-0.578-0.761-1.089C251.342,228.266,251.533,228.024,251.781,227.893z"/>
					</g>
					<g>
						<path style="fill:#2E150C;" d="M244.789,228.949c-0.847-0.018-1.734-0.141-2.561-0.209c-0.837-0.059-1.656-0.15-2.475-0.121
							c-0.822,0.009-1.631,0.125-2.437,0.333c-0.83,0.167-1.596,0.536-2.456,0.883l-0.067,0.027
							c-0.308,0.124-0.658-0.024-0.783-0.332c-0.083-0.206-0.044-0.432,0.083-0.595c0.629-0.805,1.417-1.551,2.365-2.051
							c0.935-0.516,1.98-0.871,3.044-1.006c1.061-0.14,2.144-0.154,3.172,0.085c1.036,0.239,1.989,0.601,2.883,1.317
							c0.405,0.324,0.47,0.915,0.145,1.32c-0.189,0.235-0.467,0.356-0.747,0.352L244.789,228.949z"/>
					</g>
					<path style="fill:#FFFFFF;" d="M255.493,251.848c-3.248,8.115-10.583,2.562-10.583,2.562L255.493,251.848z"/>
					<g>
						<path style="fill:#2E150C;" d="M248.251,236.8c0.171,1.288,0.199,2.573,0.069,3.87c-0.121,1.296-0.439,2.599-0.991,3.829
							c-0.585,1.222-1.282,2.183-1.434,3.249c-0.07,0.523-0.031,1.062,0.262,1.498c0.286,0.446,0.799,0.823,1.456,0.795
							c-0.582,0.357-1.419,0.16-1.974-0.318c-0.586-0.499-0.854-1.297-0.863-2.027c-0.035-0.741,0.193-1.453,0.439-2.078
							c0.263-0.625,0.578-1.178,0.812-1.72c0.512-1.073,0.861-2.236,1.196-3.43C247.55,239.272,247.831,238.033,248.251,236.8z"/>
					</g>
					<g>
						<path style="fill:#2E150C;" d="M219.418,239.001c0.102-0.771,0.429-1.631,1.236-2.124c0.386-0.24,0.904-0.361,1.409-0.252
							c0.507,0.098,0.924,0.4,1.244,0.728c0.657,0.676,0.973,1.488,1.257,2.246c0.281,0.755,0.49,1.495,0.737,2.244
							c0.123,0.371-0.079,0.771-0.45,0.894c-0.314,0.104-0.649-0.025-0.819-0.292l-0.018-0.029c-0.36-0.565-0.942-1.032-1.602-1.196
							c-0.331-0.083-0.566-0.093-0.778,0.016c-0.225,0.107-0.428,0.353-0.553,0.635c-0.243,0.555-0.075,1.365,0.336,2.045
							c0.394,0.672,1.012,1.318,1.906,1.382c-0.89,0.295-1.873-0.262-2.492-0.945c-0.617-0.683-1.139-1.692-0.849-2.835
							c0.14-0.542,0.473-1.05,1-1.388c0.54-0.352,1.243-0.378,1.747-0.252c1.031,0.243,1.959,0.881,2.5,1.804l-1.287,0.574
							c-0.212-0.75-0.451-1.512-0.638-2.252c-0.203-0.721-0.439-1.42-0.811-1.941c-0.384-0.521-0.897-0.808-1.549-0.582
							C220.301,237.674,219.795,238.308,219.418,239.001z"/>
					</g>
					<g>
						<path style="fill:#2E150C;" d="M275.119,244.483c-0.235-0.753-0.607-1.474-1.201-1.788c-0.595-0.348-1.154-0.167-1.633,0.269
							c-0.467,0.438-0.834,1.078-1.174,1.745c-0.328,0.689-0.711,1.39-1.065,2.084l-1.15-0.813c0.71-0.801,1.745-1.245,2.803-1.282
							c0.52-0.026,1.203,0.137,1.665,0.588c0.452,0.434,0.679,0.998,0.711,1.557c0.062,1.177-0.646,2.065-1.385,2.615
							c-0.741,0.549-1.814,0.904-2.629,0.441c0.89,0.111,1.622-0.402,2.139-0.984c0.535-0.587,0.858-1.348,0.728-1.94
							c-0.068-0.301-0.219-0.582-0.418-0.731c-0.187-0.148-0.42-0.184-0.76-0.167c-0.679,0.032-1.341,0.377-1.804,0.861
							l-0.023,0.024c-0.27,0.283-0.718,0.293-1.001,0.023c-0.239-0.229-0.283-0.585-0.127-0.86c0.388-0.686,0.737-1.371,1.16-2.057
							c0.426-0.688,0.894-1.423,1.671-1.958c0.378-0.259,0.846-0.474,1.362-0.471c0.517-0.008,1,0.211,1.333,0.522
							C275.015,242.799,275.169,243.707,275.119,244.483z"/>
					</g>
					<path style="fill:#2E150C;" d="M257.024,242.044c-0.187,1.9-1.156,3.359-2.166,3.26s-1.676-1.72-1.489-3.62
						c0.187-1.9,1.157-3.359,2.166-3.26C256.545,238.524,257.211,240.144,257.024,242.044z"/>
					<path style="fill:#2E150C;" d="M238.88,240.258c-0.187,1.9,0.479,3.52,1.489,3.62c1.009,0.099,1.979-1.36,2.166-3.26
						c0.187-1.9-0.479-3.52-1.489-3.62C240.036,236.899,239.066,238.359,238.88,240.258z"/>
				</g>
			</g>
		</g>
	</g>
	<g>
		<defs>
			<rect id="SVGID_1_" x="36.51" y="67.75" width="442" height="364.5"/>
		</defs>
		<clipPath id="SVGID_00000157299361399388211930000013239339631317254805_">
			<use xlink:href="#SVGID_1_"  style="overflow:visible;"/>
		</clipPath>
		<g style="clip-path:url(#SVGID_00000157299361399388211930000013239339631317254805_);">
			<g>
				<g>
					<path style="fill:#FFA901;" d="M463.521,441.59h-121.94c1.6-21.52,15.27-45.94,22.03-56.84c0.22-0.35,0.42-0.68,0.63-1
						c1.91-3.05,3.13-4.8,3.13-4.8h70.36c0,0,1.22,1.75,3.13,4.8c0.21,0.32,0.41,0.65,0.63,1
						C448.251,395.65,461.921,420.07,463.521,441.59z"/>
					<path style="opacity:0.5;fill:#FFA901;" d="M432.991,384.75h8.5c-0.22-0.35-0.42-0.68-0.63-1h-76.62
						c-0.21,0.32-0.41,0.65-0.63,1h68.33c0,0.07,0.01,0.14,0.04,0.21c0.15,0.31,13.89,30.74,15.99,56.63h1
						C446.961,416.57,434.161,387.38,432.991,384.75z"/>
				</g>
				<g>
					<g>
						<g>
							<path style="fill:#CC7548;" d="M388.04,280.148c2.635-0.723,5.498,0.126,7.255,2.218c1.961,2.335,3.987,6.297,4.249,12.806
								c0.524,13.019-66.575,78.912-82.777,75.896c-13.247-2.466-26.809-56.24-31.316-75.777c-0.914-3.96,1.347-7.958,5.212-9.214
								l1.566-0.509c3.736-1.214,7.793,0.526,9.489,4.07l18.972,39.653C320.689,329.292,354.678,289.301,388.04,280.148z"/>
						</g>
						<path style="fill:#AB9909;" d="M337.35,310.232c0,0,29.519-28.091,51.42-30.789l-22.377,59.673l-9.681,8.411
							C356.712,347.527,331.796,327.372,337.35,310.232z"/>
					</g>
					<g>
						<path style="fill:#CC7548;" d="M435.849,366.77c1.41-20.364,5.54-59.676,1.278-70.863c-4.686-12.3-26-16.724-34.279-17.997
							h-3.328c-8.279,1.273-34.41,68.496-33,88.86c0.524,7.564,33,12.34,33,12.34h3.328
							C402.849,379.11,435.326,374.334,435.849,366.77z"/>
						<g>
							<path style="fill:#AB9909;" d="M439.711,319.44c-0.95,17.77-1.98,59.51-1.98,59.51h-70.86l-2.98-49.21
								c-0.35-5.75,0.72-11.5,3.11-16.74c4.77-10.49,13.42-27.77,20.82-33.23c0.14-0.1,0.27-0.2,0.41-0.29l0.56-0.02l3.35-0.14
								c0,0,2.66,30.28,6.79,31.39c4.12,1.11,12.22-31.74,12.22-31.74s1.05,0.27,2.7,0.76c0.3,0.1,0.61,0.19,0.95,0.3
								c5.32,1.65,14.97,5.09,18.57,9.25C438.441,295.15,440.671,301.66,439.711,319.44z"/>
							<g>
								<path style="opacity:0.5;fill:#AB9909;" d="M414.801,280.03c-1.86,9.21-8.24,30.14-14.43,34.39
									c-0.79,0.54-1.56,0.81-2.32,0.81c-0.29,0-0.59-0.04-0.88-0.13c-6.32-1.86-8.64-25.37-9.35-35.33
									c0.14-0.1,0.27-0.2,0.41-0.29l0.56-0.02c0.83,11.91,3.38,33.12,8.67,34.69c0.72,0.21,1.49,0.03,2.34-0.55
									c5.89-4.06,12.24-24.96,14.05-33.87C414.151,279.83,414.461,279.92,414.801,280.03z"/>
							</g>
							<g>
								<rect x="406.816" y="325.125" style="opacity:0.5;fill:#AB9909;" width="13.125" height="2.375"/>
							</g>
							<g style="opacity:0.5;">
								<path style="fill:#AB9909;" d="M427.524,338.917l-2.25-0.417l-4.417-17.5l2.71,18.61c0.264,1.812,1.799,3.167,3.629,3.203
									l0.995,0.02L427.524,338.917z"/>
							</g>
						</g>
					</g>
					<g>
						
							<rect x="391.416" y="265.701" transform="matrix(0.9843 -0.1763 0.1763 0.9843 -42.1068 74.9116)" style="fill:#CC7548;" width="18.021" height="17.326"/>
						<path style="fill:#AD5F37;" d="M408.201,266.704l0.697,3.892c-2.464,1.738-5.345,2.984-8.511,3.551
							c-3.167,0.567-6.301,0.398-9.215-0.376l-0.697-3.892c2.914,0.774,6.048,0.943,9.215,0.376
							C402.856,269.688,405.737,268.442,408.201,266.704z"/>
					</g>
					<g>
						<g>
							<g>
								<path style="fill:#CC7548;" d="M467.471,390.8c-0.14,2.31-0.42,4.62-0.83,6.9c-0.01,0.06-0.02,0.13-0.03,0.2
									c-0.97,5.41-6.93,8.29-11.78,5.7c-1.77-0.95-3.55-1.93-5.34-2.95c-1.2-0.68-2.38-1.41-3.53-2.18
									c-3.09-2.03-5.98-4.35-8.65-6.94c-0.66-0.63-1.32-1.3-1.96-1.97c-13.59-14.45-47.71-51.09-61.36-69.03
									c-0.11-0.15-0.21-0.29-0.32-0.43l-15.69-18.28c0,0-2.86-5.08,0.79-4.76c3.65,0.32,17.67,4.34,24.47,14.23l-0.02,0.02
									c7.41,5.84,27.03,21.26,45.88,36.01c-4.63-23.55-9.07-50.08-6.78-55.72c0,0-0.38-6.84,5.34-6.04
									c5.25,0.74,31.06,36.27,38.78,89.33c0.27,1.84,0.52,3.71,0.74,5.59C467.591,383.91,467.681,387.36,467.471,390.8z"/>
								<g>
									<polygon style="opacity:0.4;fill:#CC7548;" points="428.691,344.75 442.441,359.875 428.816,347.375 									"/>
								</g>
							</g>
							<path style="opacity:0.4;fill:#CC7548;" d="M467.471,390.8c-0.14,2.31-0.42,4.62-0.83,6.9c-0.01,0.06-0.02,0.13-0.03,0.2
								c-0.97,5.41-6.93,8.29-11.78,5.7c-1.77-0.95-3.55-1.93-5.34-2.95c-1.2-0.68-2.38-1.41-3.53-2.18
								c-0.01-0.21-0.02-0.42-0.02-0.64c0-6.58,5.34-11.91,11.92-11.91C461.811,385.92,465.311,387.84,467.471,390.8z"/>
						</g>
						<g>
							<path style="fill:#AB9909;" d="M458.761,337.05l-4.28,1.1c-8.57,2.2-17.53,2.5-26.24,0.86l-2.81-0.53
								c0,0-0.34-1.02-0.88-2.79c-0.11-0.34-0.22-0.7-0.34-1.09c-3.41-11.35-12.11-44.22-1-51.67c0,0,11.11,1.12,20,18.26
								c6.74,13.01,12.2,26.92,14.45,32.88c0.13,0.34,0.25,0.66,0.35,0.94C458.501,336.32,458.761,337.05,458.761,337.05z"/>
							<g>
								<path style="opacity:0.5;fill:#AB9909;" d="M458.011,335.01c-4.29,1.82-9.83,2.42-15.3,2.42c-7.16,0-14.2-1.03-18.16-1.74
									c-0.11-0.34-0.22-0.7-0.34-1.09c6.55,1.18,23.66,3.63,33.45-0.53C457.791,334.41,457.911,334.73,458.011,335.01z"/>
							</g>
						</g>
					</g>
				</g>
				<g>
					<g>
						<path style="fill:#CC7548;" d="M421.349,234.971c-2.717-2.496-5.094-0.829-6.253,0.357l-1.288-7.192
							c-2.077-11.592-13.158-19.306-24.75-17.229l0,0c-11.592,2.077-19.306,13.158-17.229,24.75l1.288,7.192
							c-1.499-0.71-4.307-1.448-5.988,1.836c-2.26,4.415,4.036,12.106,8.551,11.26c3.26,9.939,13.42,16.217,24.012,14.32h0
							c10.591-1.898,17.94-11.312,17.547-21.765C421.767,247.725,425.002,238.327,421.349,234.971z"/>
						<g>
							<g>
								<path style="fill:#2E150C;" d="M400.965,255.876c0.648-0.39,1.312-0.675,1.916-1.063c0.315-0.168,0.61-0.368,0.886-0.586
									c0.278-0.217,0.533-0.46,0.759-0.766c-0.054,0.381-0.268,0.727-0.522,1.018c-0.255,0.296-0.578,0.511-0.895,0.721
									C402.443,255.563,401.728,255.838,400.965,255.876z"/>
							</g>
							<g>
								<path style="fill:#2E150C;" d="M394.389,238.035c0.484,1.121,0.838,2.276,1.051,3.482c0.213,1.202,0.282,2.463,0.082,3.716
									c-0.202,1.257-0.611,2.299-0.466,3.304c0.07,0.491,0.243,0.968,0.62,1.288c0.373,0.33,0.933,0.54,1.52,0.347
									c-0.435,0.471-1.242,0.507-1.866,0.217c-0.657-0.302-1.103-0.955-1.298-1.612c-0.414-1.363,0-2.684,0.16-3.754
									c0.174-1.102,0.217-2.241,0.206-3.407C394.387,240.449,394.325,239.256,394.389,238.035z"/>
							</g>
							<g>
								<path style="fill:#2E150C;" d="M368.881,247.391c-0.105-0.723-0.028-1.584,0.575-2.236c0.288-0.316,0.725-0.557,1.209-0.588
									c0.484-0.041,0.938,0.126,1.311,0.34c0.767,0.443,1.26,1.097,1.71,1.71c0.447,0.611,0.825,1.227,1.24,1.841
									c0.206,0.304,0.126,0.717-0.178,0.923c-0.258,0.174-0.593,0.144-0.815-0.055l-0.024-0.021
									c-0.47-0.419-1.115-0.693-1.754-0.673c-0.32,0.01-0.535,0.061-0.7,0.213c-0.176,0.154-0.297,0.428-0.337,0.715
									c-0.078,0.564,0.281,1.254,0.826,1.763c0.528,0.507,1.251,0.933,2.077,0.763c-0.729,0.494-1.76,0.242-2.495-0.218
									c-0.733-0.46-1.462-1.239-1.492-2.346c-0.012-0.526,0.159-1.071,0.55-1.511c0.398-0.457,1.027-0.66,1.515-0.674
									c0.995-0.044,1.996,0.296,2.721,0.993l-1.017,0.847c-0.383-0.624-0.794-1.252-1.152-1.873
									c-0.368-0.6-0.759-1.172-1.229-1.547c-0.481-0.373-1.018-0.501-1.55-0.131C369.34,245.966,369.044,246.668,368.881,247.391z
									"/>
							</g>
							<g>
								<path style="fill:#2E150C;" d="M420.646,238.117c-0.405-0.621-0.926-1.177-1.542-1.31c-0.627-0.163-1.086,0.144-1.408,0.661
									c-0.31,0.515-0.479,1.188-0.616,1.878c-0.121,0.707-0.288,1.439-0.43,2.157l-1.248-0.442
									c0.438-0.905,1.259-1.572,2.207-1.876c0.463-0.156,1.123-0.184,1.655,0.106c0.519,0.277,0.869,0.729,1.04,1.226
									c0.356,1.048-0.057,2.033-0.585,2.718c-0.529,0.686-1.409,1.281-2.264,1.07c0.833-0.126,1.363-0.777,1.683-1.436
									c0.334-0.667,0.432-1.438,0.163-1.94c-0.138-0.255-0.347-0.47-0.565-0.554c-0.207-0.086-0.426-0.059-0.73,0.043
									c-0.606,0.203-1.117,0.683-1.411,1.24l-0.015,0.028c-0.172,0.325-0.574,0.448-0.899,0.276
									c-0.275-0.146-0.405-0.457-0.335-0.746c0.176-0.72,0.316-1.428,0.524-2.156c0.21-0.731,0.445-1.515,1.01-2.197
									c0.276-0.331,0.643-0.645,1.111-0.774c0.465-0.139,0.958-0.065,1.338,0.132
									C420.122,236.622,420.493,237.403,420.646,238.117z"/>
							</g>
							<g>
								<path style="fill:#2E150C;" d="M389.019,234.717c-0.697-0.026-1.561-0.029-2.337,0.044
									c-0.794,0.072-1.582,0.193-2.347,0.409c-0.77,0.21-1.49,0.553-2.179,0.97c-0.704,0.408-1.295,0.98-1.903,1.579l-0.037,0.036
									c-0.19,0.187-0.496,0.185-0.683-0.005c-0.152-0.154-0.179-0.386-0.081-0.568c0.443-0.824,0.973-1.657,1.707-2.306
									c0.7-0.682,1.536-1.239,2.434-1.64c0.892-0.417,1.843-0.712,2.812-0.847c0.986-0.125,1.91-0.159,2.975,0.034
									c0.63,0.114,1.048,0.717,0.935,1.347c-0.104,0.576-0.617,0.975-1.185,0.952L389.019,234.717z"/>
							</g>
							<g>
								<path style="fill:#2E150C;" d="M396.571,231.134c0.932-0.55,1.81-0.839,2.778-1.064c0.956-0.21,1.95-0.263,2.931-0.182
									c0.981,0.064,1.959,0.297,2.852,0.693c0.913,0.354,1.699,0.951,2.401,1.57c0.2,0.176,0.219,0.482,0.043,0.682
									c-0.144,0.163-0.372,0.206-0.56,0.121l-0.048-0.022c-0.778-0.35-1.531-0.682-2.333-0.82
									c-0.791-0.152-1.586-0.223-2.38-0.153c-0.792,0.063-1.573,0.223-2.343,0.432c-0.753,0.201-1.563,0.503-2.207,0.77
									l-0.102,0.042c-0.592,0.245-1.27-0.036-1.515-0.628C395.865,232.035,396.081,231.422,396.571,231.134z"/>
							</g>
							<g>
								<path style="fill:#2E150C;" d="M403.662,240.535c0.316,1.765-0.188,3.333-1.125,3.501s-1.954-1.127-2.271-2.893
									c-0.316-1.766,0.188-3.333,1.125-3.501S403.346,238.769,403.662,240.535z"/>
								<path style="fill:#2E150C;" d="M402.069,238.254c0,0,1.42-0.352,2.121-1.113c0,0-0.357,1.828-1.637,2.113L402.069,238.254z"
									/>
							</g>
							<g>
								<path style="fill:#2E150C;" d="M386.799,243.556c0.316,1.766,1.333,3.061,2.271,2.893c0.938-0.168,1.442-1.735,1.125-3.501
									c-0.316-1.765-1.333-3.061-2.271-2.893C386.987,240.223,386.483,241.79,386.799,243.556z"/>
								<path style="fill:#2E150C;" d="M387.502,240.864c0,0-1.454,0.163-2.375-0.308c0,0,0.97,1.591,2.269,1.413L387.502,240.864z"
									/>
							</g>
							<path style="fill:#DE7B5E;" d="M389.656,252.892c0.53,2.959-1.439,5.787-4.397,6.317c-2.959,0.53-5.787-1.439-6.317-4.397
								c-0.53-2.959,1.439-5.787,4.397-6.317C386.298,247.965,389.126,249.933,389.656,252.892z"/>
							<path style="fill:#DE7B5E;" d="M416.372,248.106c0.53,2.959-1.439,5.787-4.397,6.317c-2.959,0.53-5.787-1.439-6.317-4.397
								c-0.53-2.959,1.439-5.787,4.397-6.317C413.014,243.178,415.842,245.147,416.372,248.106z"/>
							<path style="fill:#FF774F;" d="M397.668,254.665c0,0-0.149-2.172,1.19-2.381c1.339-0.208,1.875-0.03,1.875-0.03
								s0.536-1.875,1.488-2.053c0.952-0.178,2.142,0.476,2.142,0.476S402.578,254.219,397.668,254.665z"/>
							<path style="fill:#FF774F;" d="M397.668,254.665c0,0,3.571,1.518,5.267-0.387c1.696-1.904,1.28-3.363,1.28-3.363
								S402.488,254.457,397.668,254.665z"/>
							<g>
								<path style="fill:#2E150C;" d="M395.868,254.811c1.801-0.37,3.513-0.81,5.074-1.562c0.78-0.374,1.487-0.859,2.142-1.418
									c0.661-0.566,1.165-1.276,1.698-2.04c-0.181,0.897-0.56,1.804-1.192,2.526c-0.619,0.729-1.403,1.314-2.253,1.739
									c-0.861,0.402-1.771,0.677-2.697,0.802C397.717,254.984,396.777,255,395.868,254.811z"/>
							</g>
						</g>
					</g>
					<path style="fill:#2E150C;" d="M430.369,253.378c6.933-12.947-18.231-34.834-21.261-37.402
						c-1.647-1.723-3.704-3.363-6.293-4.816c-14.617-8.203-33.434,5.459-34.857,16.882c-1.65,3.127-13.984,27.482-3.152,37.275
						c0,0-7.129,10.089-0.317,18.092c9.522,11.189,25.393,4.761,27.615-3.968l-1.428-9.681c0,0-11.665-2.698-15.077-13.887
						c0,0-8.411-1.111-8.888-9.284c0,0,0.242-5.248,5.824-4.006c0.369,0.225,0.604,0.277,0.604,0.277
						c8.015,0.952,6.031-9.046,6.031-9.046c8.649-2.143,10.435-11.347,10.435-11.347s6.785,6.666,13.569,2.976
						c0,0,3.329,7.273,7.656,9.557c1.024,1.142,2.415,1.538,4.247,0.322c4.971-3.299,7.184,1.068,7.184,1.068
						c2.309,7.855-5.235,11.738-5.235,11.738c0.562,11.684-8.793,18.618-8.793,18.618l2.21,12.503
						c5.036,7.468,28.069,2.552,29.768-7.819C441.738,262.105,430.369,253.378,430.369,253.378z"/>
				</g>
			</g>
			<path style="fill:#FFBDA8;" d="M432.941,287.625c-0.049,4.989-0.566,13.494-1.736,14.094c-1.897,0.973-3.176-3.857-3.176-3.857
				s-1.952,7.875-3.253,8.289c-1.301,0.415-0.567-8.853-0.567-8.853s-2.956,7.885-4.079,8.524
				c-1.123,0.639,0.148-10.039,0.148-10.039s-4.135,7.922-5.441,7.835c-1.306-0.087,3.679-18.156,3.679-18.156
				s-7.988-0.822-6.026-2.774c0.965-0.96,3.325-1.25,6.075-1.813C421.371,280.301,432.974,284.212,432.941,287.625z"/>
		</g>
		<g style="clip-path:url(#SVGID_00000157299361399388211930000013239339631317254805_);">
			<g>
				<g>
					<path style="fill:#024442;" d="M114.944,378.952c0,0-25.173,39.041-25.649,63.005h122.837c0,0-4.923-43.166-25.791-63.005
						H114.944z"/>
					<path style="opacity:0.5;fill:#024442;" d="M172.108,391.583h-12.416v-12.5c0-0.276-0.224-0.5-0.5-0.5
						c-0.276,0-0.5,0.224-0.5,0.5v12.5h-7.584v-12.25c0-0.276-0.224-0.5-0.5-0.5c-0.276,0-0.5,0.224-0.5,0.5v12.25h-17.75
						c-0.276,0-0.5,0.224-0.5,0.5s0.224,0.5,0.5,0.5h26.466c0.091,0.101,0.22,0.167,0.368,0.167c0.147,0,0.276-0.066,0.367-0.167
						h12.549c0.276,0,0.5-0.224,0.5-0.5S172.384,391.583,172.108,391.583z"/>
					<g style="opacity:0.5;">
						<g>
							<path style="fill:#024442;" d="M142.316,400.75c0,0,9.625,8.375,17.375,7.75v31.625l-7.75-28.25
								C151.941,411.875,143.816,406.625,142.316,400.75z"/>
						</g>
					</g>
				</g>
				<g>
					<g>
						<path style="fill:#FFA080;" d="M178.291,238.836c-2.234-2.936-4.867-1.715-6.218-0.751v-7.306
							c0-11.777-9.547-21.324-21.324-21.324l0,0c-11.777,0-21.324,9.547-21.324,21.324v7.306c-1.351-0.963-3.984-2.185-6.218,0.751
							c-3.004,3.947,1.838,12.628,6.432,12.591c1.456,10.358,10.35,18.33,21.11,18.33l0,0c10.76,0,19.654-7.971,21.11-18.33
							C176.453,251.464,181.295,242.783,178.291,238.836z"/>
						<g>
							<g>
								<path style="fill:#2E150C;" d="M149.71,253.871c1.837-0.047,3.601-0.177,5.27-0.643c0.833-0.231,1.615-0.583,2.359-1.018
									c0.751-0.441,1.372-1.051,2.031-1.709c-0.336,0.852-0.869,1.677-1.619,2.277c-0.738,0.608-1.612,1.046-2.525,1.314
									c-0.919,0.243-1.863,0.354-2.796,0.314C151.5,254.367,150.572,254.218,149.71,253.871z"/>
							</g>
							<g>
								<path style="fill:#2E150C;" d="M154.54,255.818c0.707-0.27,1.411-0.433,2.074-0.708c0.34-0.11,0.665-0.255,0.975-0.421
									c0.312-0.165,0.605-0.359,0.883-0.62c-0.12,0.366-0.392,0.668-0.693,0.909c-0.303,0.247-0.659,0.401-1.008,0.552
									C156.049,255.771,155.298,255.916,154.54,255.818z"/>
							</g>
							<g>
								<path style="fill:#2E150C;" d="M151.213,237.097c0.279,1.189,0.423,2.388,0.421,3.613c-0.003,1.221-0.157,2.475-0.575,3.672
									c-0.421,1.202-1.007,2.156-1.042,3.17c-0.018,0.495,0.069,0.996,0.383,1.377c0.309,0.391,0.823,0.696,1.435,0.609
									c-0.511,0.387-1.312,0.28-1.875-0.116c-0.594-0.413-0.918-1.134-0.993-1.816c-0.167-1.415,0.473-2.642,0.819-3.667
									c0.366-1.054,0.609-2.168,0.803-3.317C150.786,239.473,150.935,238.288,151.213,237.097z"/>
							</g>
							<g>
								<path style="fill:#2E150C;" d="M124.455,241.809c0.024-0.73,0.252-1.564,0.961-2.099c0.339-0.261,0.812-0.421,1.294-0.366
									c0.483,0.045,0.901,0.289,1.231,0.566c0.677,0.572,1.047,1.302,1.382,1.984c0.332,0.68,0.595,1.353,0.896,2.03
									c0.149,0.336-0.003,0.729-0.339,0.877c-0.284,0.126-0.609,0.037-0.793-0.197l-0.019-0.025
									c-0.388-0.496-0.976-0.879-1.608-0.971c-0.317-0.047-0.538-0.035-0.726,0.087c-0.2,0.121-0.368,0.369-0.458,0.645
									c-0.176,0.542,0.056,1.284,0.502,1.881c0.43,0.592,1.067,1.139,1.91,1.117c-0.805,0.358-1.775-0.073-2.417-0.654
									c-0.64-0.582-1.221-1.478-1.055-2.573c0.081-0.52,0.345-1.026,0.808-1.39c0.473-0.379,1.127-0.468,1.611-0.396
									c0.987,0.132,1.913,0.643,2.504,1.457l-1.151,0.655c-0.267-0.682-0.56-1.372-0.804-2.047
									c-0.256-0.656-0.541-1.287-0.937-1.74c-0.407-0.452-0.914-0.673-1.502-0.402
									C125.158,240.486,124.743,241.126,124.455,241.809z"/>
							</g>
							<g>
								<path style="fill:#2E150C;" d="M177.044,241.809c-0.289-0.683-0.703-1.322-1.287-1.561c-0.589-0.271-1.095-0.05-1.502,0.402
									c-0.396,0.453-0.681,1.084-0.937,1.74c-0.244,0.675-0.537,1.365-0.804,2.047l-1.151-0.655
									c0.591-0.814,1.517-1.325,2.504-1.457c0.483-0.072,1.138,0.017,1.611,0.396c0.462,0.365,0.727,0.87,0.808,1.39
									c0.166,1.095-0.414,1.991-1.055,2.573c-0.642,0.582-1.613,1.012-2.417,0.654c0.842,0.022,1.479-0.525,1.91-1.117
									c0.447-0.598,0.679-1.339,0.502-1.881c-0.091-0.276-0.258-0.524-0.458-0.645c-0.189-0.121-0.409-0.133-0.726-0.087
									c-0.632,0.093-1.22,0.476-1.608,0.971l-0.019,0.025c-0.226,0.289-0.644,0.34-0.933,0.113
									c-0.245-0.192-0.318-0.521-0.198-0.793c0.3-0.677,0.563-1.35,0.896-2.03c0.335-0.682,0.705-1.413,1.382-1.984
									c0.33-0.277,0.747-0.521,1.231-0.566c0.482-0.055,0.955,0.105,1.294,0.366C176.792,240.244,177.02,241.078,177.044,241.809z
									"/>
							</g>
							<g>
								<path style="fill:#2E150C;" d="M146.512,232.885c-0.681-0.149-1.531-0.304-2.308-0.369c-0.794-0.07-1.591-0.089-2.382-0.012
									c-0.794,0.071-1.564,0.281-2.316,0.57c-0.764,0.277-1.447,0.736-2.151,1.219l-0.043,0.029
									c-0.22,0.151-0.521,0.094-0.671-0.126c-0.123-0.179-0.108-0.412,0.02-0.573c0.582-0.733,1.25-1.459,2.086-1.969
									c0.809-0.548,1.731-0.949,2.686-1.185c0.952-0.253,1.94-0.376,2.917-0.338c0.993,0.051,1.908,0.18,2.922,0.558
									c0.6,0.223,0.906,0.891,0.682,1.491c-0.204,0.548-0.779,0.851-1.334,0.729L146.512,232.885z"/>
							</g>
							<g>
								<path style="fill:#2E150C;" d="M154.578,230.689c1.014-0.377,1.93-0.507,2.923-0.558c0.978-0.038,1.966,0.085,2.917,0.338
									c0.954,0.236,1.876,0.637,2.686,1.185c0.836,0.51,1.505,1.236,2.086,1.969c0.166,0.209,0.131,0.513-0.078,0.678
									c-0.17,0.135-0.403,0.137-0.573,0.021l-0.044-0.03c-0.704-0.482-1.387-0.941-2.151-1.219c-0.752-0.289-1.521-0.5-2.316-0.57
									c-0.791-0.078-1.588-0.058-2.382,0.012c-0.777,0.065-1.627,0.22-2.308,0.369l-0.108,0.024
									c-0.626,0.137-1.243-0.26-1.38-0.885C153.724,231.452,154.044,230.887,154.578,230.689z"/>
							</g>
							<g>
								<ellipse style="fill:#2E150C;" cx="158.175" cy="241.193" rx="1.725" ry="3.248"/>
								<path style="fill:#2E150C;" d="M158.734,238.668c0,0,1.46-0.096,2.284-0.722c0,0-0.674,1.737-1.984,1.791L158.734,238.668z"
									/>
							</g>
							<g>
								<path style="fill:#2E150C;" d="M142.769,241.193c0,1.794,0.772,3.248,1.725,3.248c0.953,0,1.725-1.454,1.725-3.248
									s-0.772-3.248-1.725-3.248C143.541,237.946,142.769,239.4,142.769,241.193z"/>
								<path style="fill:#2E150C;" d="M143.935,238.668c0,0-1.46-0.096-2.284-0.722c0,0,0.674,1.737,1.984,1.791L143.935,238.668z"
									/>
							</g>
							<path style="fill:#F78E6B;" d="M143.935,250.887c0,3.006-2.437,5.442-5.442,5.442c-3.006,0-5.442-2.437-5.442-5.442
								c0-3.006,2.437-5.442,5.442-5.442C141.498,245.445,143.935,247.881,143.935,250.887z"/>
							<path style="fill:#F78E6B;" d="M171.076,250.887c0,3.006-2.437,5.442-5.442,5.442c-3.006,0-5.442-2.437-5.442-5.442
								c0-3.006,2.437-5.442,5.442-5.442C168.639,245.445,171.076,247.881,171.076,250.887z"/>
						</g>
					</g>
					<g>
						<path style="fill:#2E150C;" d="M172.059,238.021c0,0-1.904,2.857-2.777,2.698c-0.873-0.159-3.729-15.87-3.729-15.87
							c1.032,4.126,0,6.745,0,6.745c-8.57,2.539-30.868,0-30.868,0c-1.27-2.381,0-7.38,0-7.38s-2.103,9.8-1.944,13.52
							c0.164,3.847-2.529,1.934-3.303,0.327c-0.774-1.607-3.204-16.227,5.208-24.163c8.411-7.935,30.59-4.285,34.479,1.587
							C173.012,221.357,172.059,238.021,172.059,238.021z"/>
						<path style="fill:#2E150C;" d="M164.105,203.302c-0.718,5.241-6.985,12.022-13.57,12.022c-6.585,0-12.852-6.782-13.57-12.022
							c-0.803-5.861,5.232-11.146,13.57-11.146C158.873,192.156,164.908,197.441,164.105,203.302z"/>
					</g>
				</g>
				<g>
					<g>
						<rect x="141.739" y="265.258" style="fill:#FFA080;" width="18.021" height="17.326"/>
						<path style="fill:#F78E6B;" d="M159.753,267.753v3.954c-2.732,1.276-5.787,1.995-9.004,1.995
							c-3.217,0-6.272-0.719-9.004-1.995v-3.954c2.732,1.276,5.787,1.995,9.004,1.995
							C153.966,269.747,157.021,269.029,159.753,267.753z"/>
					</g>
					<g>
						<path style="fill:#FFFFFF;" d="M141.509,279.443c0,0-2.877-4.878-0.288-7.221c1.343-1.215,4.262-0.848,9.79-1.071
							c5.789-0.234,8.71-0.26,9.998,0.952c2.507,2.359-1.255,7.35-1.255,7.35s18.891,3.64,26.35,12.21
							c7.459,8.57-1.591,81.1,0.236,87.288h-71.397c0,0,0.379-27.615-1.208-35.074c-1.587-7.459-1.904-54.753-1.904-54.753
							S133.256,280.078,141.509,279.443z"/>
						<g>
							<g>
								<path style="fill:#DEF5FF;" d="M162.858,376.083h-24.083c-0.276,0-0.5-0.224-0.5-0.5s0.224-0.5,0.5-0.5h24.083
									c0.276,0,0.5,0.224,0.5,0.5S163.134,376.083,162.858,376.083z"/>
							</g>
							<g>
								<path style="fill:#DEF5FF;" d="M150.629,281.993c-4.568,0-7.929-1.443-8.139-1.536c-0.253-0.111-0.367-0.406-0.256-0.658
									c0.11-0.253,0.407-0.367,0.658-0.257c0.075,0.033,7.49,3.206,15.105-0.003c0.253-0.105,0.547,0.012,0.655,0.267
									c0.107,0.254-0.012,0.547-0.267,0.655C155.657,281.609,152.982,281.993,150.629,281.993z"/>
							</g>
						</g>
					</g>
					<g>
						<g>
							<path style="fill:#2B6DE5;" d="M141.757,279.453L141.757,279.453c-4.454,0.911-8.26,4.948-7.495,9.43
								c9.31,54.518,3.087,130.535-0.847,137.997c-4.602,8.729-42.215,1.111-42.215,1.111s17.299-72.211,17.457-83.32
								c0.159-11.109,1.587-56.181,1.587-56.181s12.791-9.274,30.248-11.417L141.757,279.453z"/>
							<g>
								<path style="opacity:0.5;fill:#2B6DE5;" d="M117.798,424.917h-21.69c-0.276,0-0.5-0.224-0.5-0.5s0.224-0.5,0.5-0.5h21.69
									c5.56,0,10.59-3.504,12.517-8.718c1.501-4.06,1.729-8.419,0.66-12.603c-2.629-10.295-9.371-28.882-12.61-37.814
									c-0.61-1.681-1.092-3.011-1.394-3.864c-2.347-6.634,7.733-20.482,12.175-26.128c0.93-1.182,0.886-2.861-0.105-3.993
									c-3.587-4.095-9.836-11.469-11.387-14.837c-2.503-5.439,11.44-26.904,12.036-27.815c0.151-0.23,0.461-0.295,0.692-0.146
									c0.231,0.151,0.296,0.461,0.145,0.692c-3.967,6.078-13.852,22.75-11.964,26.851c1.554,3.375,8.372,11.332,11.23,14.597
									c1.309,1.493,1.367,3.71,0.139,5.271c-3.387,4.303-14.261,18.837-12.019,25.175c0.302,0.852,0.783,2.18,1.392,3.857
									c3.245,8.947,9.998,27.565,12.639,37.907c1.119,4.383,0.88,8.946-0.69,13.197
									C129.181,421.15,123.774,424.917,117.798,424.917z"/>
							</g>
						</g>
						<g>
							<path style="fill:#FFA080;" d="M98.737,442.422c0-0.002-0.001-0.004-0.001-0.006c-3.219-13.736-14.32-61.258-20.574-88.736
								c7.393-6.746,22.45-20.641,35.905-33.997c-1.363-4.148-2.58-8.352-4.046-12.499c-1.631-4.615-3.62-9.033-5.083-13.609
								c-8.757,4.94-18.501,11.383-28.447,19.507c-7.828,6.375-15.763,13.792-23.438,22.305c-1.087,1.207-2.112,2.458-3.101,3.741
								c-2.876,3.728-4.004,8.543-3.042,13.152c0.698,3.344,1.697,6.628,2.965,9.819c1.932,4.85,4.664,11.638,7.817,19.371
								c8.829,21.614,21.035,50.632,28.767,65.35c0.001,0.003,0.003,0.005,0.004,0.007c-0.003,0.102-0.491,18.904,0.709,19.438
								c1.203,0.536,2.038-4.851,2.038-4.851s0.887,9.002,1.707,9.165c0.82,0.164,1.462-8.669,1.462-8.669s2.794,9.751,3.62,9.703
								c0.827-0.048,0.357-9.558,0.357-9.558s3.36,7.503,3.945,7.459c0.585-0.044,0.076-14.582,0.076-14.582s5.785,2.576,6.291,2.17
								c0.506-0.407-7.928-14.682-7.928-14.682L98.737,442.422z"/>
							<g>
								<path style="fill:#2B6DE5;" d="M85.811,382.92l0.87,3.81c-6.55,6.54-25.12,7.73-25.12,7.73s-0.94-1.73-2.36-4.59
									c-0.16-0.32-0.32-0.65-0.49-1c-5.6-11.41-17.05-37.21-12.03-48.09c6.55-14.16,42.49-39.04,42.49-39.04l21.81-13.72
									l6.88,34.11l-38.68,31.86l6.37,27.83L85.811,382.92z"/>
								<g>
									<g style="opacity:0.5;">
										<g>
											<polygon style="fill:#2B6DE5;" points="109.004,329.438 120.316,321.188 108.629,342.313 											"/>
										</g>
									</g>
									<g>
										<path style="opacity:0.5;fill:#2B6DE5;" d="M85.811,382.92c-6.75,5.88-20.49,6.83-26.61,6.95c-0.16-0.32-0.32-0.65-0.49-1
											c5.86-0.11,20.43-1,26.84-7.05L85.811,382.92z"/>
									</g>
									<g>
										<path style="opacity:0.5;fill:#2B6DE5;" d="M79.129,353.875c0,0-6.938-4.188-7.938-2.625S79.129,353.875,79.129,353.875z"
											/>
									</g>
									<g style="opacity:0.5;">
										<g>
											<path style="fill:#2B6DE5;" d="M79.254,354.125c0,0-5-6.938-2.938-7.875S79.254,354.125,79.254,354.125z"/>
										</g>
									</g>
								</g>
							</g>
						</g>
					</g>
					<g>
						<g>
							<path style="fill:#2B6DE5;" d="M159.755,279.453L159.755,279.453c4.454,0.911,8.726,5.053,7.495,9.43
								c-9.711,34.521-3.087,130.535,0.847,137.997c4.602,8.729,42.215,1.111,42.215,1.111s-17.299-72.211-17.458-83.32
								c-0.159-11.109-1.587-48.405-1.587-48.405s-12.785-16.828-30.243-18.97L159.755,279.453z"/>
							<g>
								<path style="opacity:0.5;fill:#2B6DE5;" d="M204.824,424.917h-21.691c-5.976,0-11.383-3.767-13.455-9.372
									c-1.57-4.251-1.809-8.814-0.69-13.197c2.641-10.342,9.394-28.96,12.639-37.907c0.608-1.678,1.09-3.005,1.392-3.857
									c2.242-6.338-8.632-20.872-12.019-25.175c-1.227-1.561-1.169-3.777,0.139-5.271c2.859-3.265,9.676-11.222,11.23-14.597
									c1.887-4.101-7.997-20.772-11.964-26.851c-0.151-0.231-0.086-0.541,0.145-0.692c0.231-0.15,0.541-0.085,0.692,0.146
									c0.595,0.911,14.539,22.377,12.036,27.815c-1.551,3.368-7.8,10.742-11.387,14.837c-0.991,1.132-1.035,2.811-0.105,3.993
									c4.442,5.646,14.522,19.494,12.175,26.128c-0.302,0.854-0.784,2.184-1.394,3.864c-3.24,8.933-9.981,27.52-12.61,37.814
									c-1.069,4.185-0.841,8.543,0.66,12.603c1.927,5.214,6.957,8.718,12.517,8.718h21.691c0.276,0,0.5,0.224,0.5,0.5
									S205.101,424.917,204.824,424.917z"/>
							</g>
						</g>
						<g>
							<path style="fill:#FFA080;" d="M225.482,375.303c-7.393-32.48-18.817-44.202-30.041-59.553
								c-2.286,2.847,1.175,69.162,1.175,69.162c2.181,25.205,6.689,83.953,7.887,99.632l-0.04-0.001c0,0-3.736,16.154-3.131,16.389
								c0.605,0.235,5.344-3.966,5.344-3.966s3.898,14.015,4.47,13.88c0.571-0.134,1.512-8.301,1.512-8.301s2.42,9.209,3.223,9.005
								c0.803-0.204,0.526-10.343,0.526-10.343s3.276,8.228,4.008,7.825c0.733-0.403-1.136-9.253-1.136-9.253s2.42,4.884,3.406,4.01
								c0.951-0.843-4.764-17.523-5.163-18.683c3.992-22.176,7.899-72.092,9.351-91.885
								C227.313,387.207,226.82,381.181,225.482,375.303z"/>
							<path style="fill:#2B6DE5;" d="M191.267,296.266c0,0,10.45,13.569,12.712,17.497s20.215,44.08,23.548,65.664
								c0,0,0.476,25.393-0.793,36.819c0,0-18.727,6.348-29.36-1.587l-2.38-30.947l-7.551-53.962L191.267,296.266z"/>
						</g>
					</g>
				</g>
			</g>
			<path style="fill:#B36138;" d="M125.396,278.132c-2.965,1.691-4.786,4.852-4.748,8.265c0.056,4.989,0.353,11.611,1.524,12.209
				c1.899,0.97,3.171-3.862,3.171-3.862s1.963,7.872,3.265,8.285c1.301,0.413,0.555-8.853,0.555-8.853s2.967,7.881,4.091,8.518
				c1.124,0.637-0.163-10.039-0.163-10.039s4.146,7.916,5.452,7.827c1.306-0.089-3.705-18.151-3.705-18.151s7.987-0.833,6.022-2.783
				c-0.967-0.959-3.413-2.064-5.649-2.94c-2.666-1.044-5.656-0.848-8.142,0.57L125.396,278.132z"/>
		</g>
		<g style="clip-path:url(#SVGID_00000157299361399388211930000013239339631317254805_);">
			<g>
				<g>
					<g>
						<path style="fill:#FFB87A;" d="M347.47,243.121c-2.234-2.936-4.867-1.715-6.218-0.751v-7.306
							c0-11.777-9.547-21.324-21.324-21.324s-21.324,9.547-21.324,21.324v7.306c-1.351-0.963-3.984-2.185-6.218,0.751
							c-3.008,3.953,1.853,12.654,6.452,12.591c1.459,10.355,10.332,18.33,21.089,18.33s19.63-7.974,21.09-18.33
							C345.617,255.775,350.478,247.074,347.47,243.121z"/>
						<g>
							<g>
								<path style="fill:#2E150C;" d="M318.572,259.624c1.837-0.047,3.601-0.178,5.27-0.643c0.833-0.231,1.615-0.583,2.359-1.018
									c0.751-0.441,1.372-1.051,2.031-1.709c-0.336,0.852-0.869,1.677-1.619,2.277c-0.738,0.608-1.612,1.046-2.525,1.314
									c-0.919,0.243-1.863,0.354-2.796,0.314C320.361,260.12,319.434,259.971,318.572,259.624z"/>
							</g>
							<g>
								<path style="fill:#2E150C;" d="M323.402,261.571c0.707-0.27,1.411-0.433,2.074-0.708c0.34-0.11,0.665-0.255,0.975-0.421
									c0.312-0.165,0.605-0.359,0.883-0.62c-0.12,0.366-0.392,0.668-0.693,0.91c-0.303,0.246-0.659,0.401-1.008,0.552
									C324.911,261.524,324.159,261.669,323.402,261.571z"/>
							</g>
							<g>
								<path style="fill:#2E150C;" d="M320.392,241.382c0.279,1.189,0.423,2.388,0.421,3.613c-0.003,1.22-0.157,2.474-0.575,3.672
									c-0.421,1.202-1.007,2.156-1.042,3.17c-0.018,0.495,0.069,0.996,0.383,1.377c0.309,0.391,0.823,0.697,1.435,0.61
									c-0.511,0.387-1.312,0.28-1.875-0.116c-0.594-0.413-0.918-1.134-0.993-1.816c-0.167-1.415,0.473-2.642,0.819-3.667
									c0.366-1.054,0.609-2.168,0.803-3.317C319.965,243.758,320.114,242.573,320.392,241.382z"/>
							</g>
							<g>
								<path style="fill:#2E150C;" d="M293.634,246.094c0.024-0.73,0.252-1.564,0.96-2.1c0.339-0.26,0.812-0.421,1.294-0.366
									c0.484,0.045,0.901,0.289,1.231,0.566c0.677,0.572,1.047,1.302,1.382,1.984c0.332,0.68,0.595,1.353,0.896,2.03
									c0.149,0.336-0.003,0.729-0.339,0.877c-0.284,0.126-0.609,0.037-0.793-0.197l-0.02-0.025
									c-0.388-0.496-0.976-0.879-1.608-0.971c-0.317-0.047-0.538-0.035-0.726,0.087c-0.2,0.121-0.367,0.369-0.458,0.645
									c-0.176,0.542,0.056,1.284,0.502,1.881c0.43,0.592,1.067,1.139,1.91,1.117c-0.805,0.358-1.775-0.073-2.417-0.654
									c-0.64-0.582-1.221-1.478-1.055-2.573c0.081-0.52,0.346-1.026,0.808-1.39c0.473-0.379,1.127-0.468,1.611-0.396
									c0.987,0.132,1.913,0.643,2.504,1.457l-1.151,0.655c-0.267-0.682-0.56-1.372-0.804-2.047
									c-0.256-0.656-0.541-1.287-0.937-1.74c-0.407-0.452-0.914-0.673-1.502-0.402
									C294.337,244.771,293.922,245.411,293.634,246.094z"/>
							</g>
							<g>
								<path style="fill:#2E150C;" d="M346.223,246.094c-0.289-0.683-0.703-1.322-1.287-1.561c-0.589-0.271-1.095-0.05-1.502,0.402
									c-0.396,0.453-0.681,1.084-0.937,1.74c-0.244,0.675-0.537,1.365-0.804,2.047l-1.151-0.655
									c0.591-0.814,1.517-1.325,2.504-1.457c0.484-0.072,1.138,0.017,1.611,0.396c0.462,0.365,0.727,0.87,0.808,1.39
									c0.166,1.095-0.414,1.991-1.055,2.573c-0.642,0.582-1.613,1.012-2.417,0.654c0.842,0.022,1.479-0.525,1.91-1.117
									c0.447-0.598,0.679-1.34,0.502-1.881c-0.091-0.276-0.258-0.524-0.458-0.645c-0.189-0.121-0.409-0.133-0.726-0.087
									c-0.632,0.093-1.22,0.476-1.608,0.971l-0.019,0.025c-0.227,0.289-0.644,0.34-0.934,0.113
									c-0.245-0.192-0.318-0.521-0.198-0.793c0.3-0.677,0.563-1.35,0.896-2.03c0.335-0.682,0.705-1.413,1.382-1.984
									c0.33-0.277,0.747-0.521,1.23-0.566c0.482-0.055,0.955,0.105,1.294,0.366C345.971,244.529,346.199,245.363,346.223,246.094z
									"/>
							</g>
							<g>
								<path style="fill:#2E150C;" d="M315.691,234.313c-0.681-0.149-1.532-0.304-2.308-0.369c-0.794-0.07-1.591-0.089-2.382-0.012
									c-0.795,0.071-1.564,0.281-2.316,0.57c-0.765,0.277-1.447,0.736-2.151,1.219l-0.043,0.029
									c-0.22,0.151-0.521,0.094-0.671-0.126c-0.122-0.179-0.108-0.412,0.02-0.573c0.582-0.733,1.25-1.459,2.086-1.969
									c0.809-0.548,1.731-0.949,2.685-1.185c0.952-0.253,1.94-0.376,2.917-0.338c0.993,0.051,1.908,0.18,2.922,0.558
									c0.6,0.223,0.906,0.891,0.682,1.491c-0.204,0.548-0.779,0.851-1.334,0.729L315.691,234.313z"/>
							</g>
							<g>
								<path style="fill:#2E150C;" d="M323.757,232.117c1.014-0.377,1.93-0.507,2.922-0.558c0.978-0.038,1.966,0.086,2.917,0.338
									c0.954,0.236,1.876,0.637,2.686,1.185c0.836,0.51,1.505,1.236,2.086,1.969c0.166,0.209,0.131,0.513-0.078,0.679
									c-0.17,0.135-0.403,0.137-0.573,0.021l-0.043-0.03c-0.704-0.482-1.387-0.941-2.151-1.219c-0.752-0.289-1.521-0.5-2.316-0.57
									c-0.791-0.078-1.588-0.058-2.382,0.012c-0.777,0.065-1.627,0.22-2.308,0.369l-0.108,0.024
									c-0.626,0.137-1.244-0.26-1.38-0.885C322.903,232.88,323.223,232.315,323.757,232.117z"/>
							</g>
							<g>
								<path style="fill:#2E150C;" d="M324.436,245.976c0.557-0.482,1.233-0.801,1.939-1.014c0.708-0.216,1.462-0.291,2.215-0.244
									c0.752,0.053,1.502,0.272,2.157,0.644c0.672,0.344,1.207,0.904,1.605,1.506c-0.67-0.312-1.258-0.644-1.906-0.827
									c-0.633-0.196-1.271-0.344-1.93-0.375C327.2,245.559,325.865,245.734,324.436,245.976z"/>
							</g>
							<g>
								<path style="fill:#2E150C;" d="M316.104,245.976c-1.43-0.242-2.764-0.417-4.08-0.309c-0.659,0.031-1.297,0.179-1.93,0.375
									c-0.648,0.182-1.235,0.514-1.905,0.827c0.398-0.602,0.933-1.162,1.605-1.506c0.655-0.372,1.405-0.591,2.157-0.644
									c0.753-0.047,1.507,0.027,2.215,0.244C314.87,245.176,315.547,245.494,316.104,245.976z"/>
							</g>
						</g>
					</g>
					<path style="fill:#2E150C;" d="M341.159,242.108c0,0-3.928,1.309-6.904-12.379c0,0-16.188,4.88-27.258,4.404
						c0,0-3.095,9.165-8.451,8.094c0,0-2.381-1.547-4.88-0.595c0,0-1.071-20.473,10.713-26.781
						c11.784-6.309,30.233-3.571,34.399,3.809c0,0,9.403,6.904,8.213,23.449C346.991,242.108,344.254,240.561,341.159,242.108z"/>
				</g>
				<g>
					<path style="fill:#2B6DE5;" d="M376.251,452.44h-113.65c2.26-27.9,21.5-63.81,21.5-63.81h35.33c-0.01,0.16-0.03,0.31-0.03,0.47
						l0.05,0.39v-0.39c0-0.16-0.01-0.31-0.02-0.47h33.87C353.301,388.63,374.001,424.54,376.251,452.44z"/>
					<g>
						<g>
							<path style="opacity:0.5;fill:#2B6DE5;" d="M325.771,391.42l-0.01,29.46l-8.52,31.56h-1.04l8.57-31.76v-29.26
								c0-0.28,0.23-0.5,0.5-0.5C325.551,390.92,325.771,391.14,325.771,391.42z"/>
						</g>
						<g>
							<path style="opacity:0.5;fill:#2B6DE5;" d="M291.111,391.05c-0.17,0.07-12.1,5.44-19.19,61.39h-1.01
								c7.22-57.14,19.34-62.14,19.86-62.33c0.26-0.09,0.55,0.05,0.64,0.3C291.501,390.67,291.371,390.96,291.111,391.05z"/>
						</g>
						<g>
							<path style="opacity:0.5;fill:#2B6DE5;" d="M369.861,452.44h-0.99c-2.77-34.21-22.14-63.11-22.34-63.41
								c-0.09-0.12-0.11-0.27-0.08-0.4c0.03-0.12,0.11-0.22,0.21-0.29c0.23-0.16,0.54-0.1,0.69,0.13c0.01,0.01,0.04,0.07,0.1,0.16
								C349.031,391,367.211,419.23,369.861,452.44z"/>
						</g>
					</g>
				</g>
				<g>
					<g>
						<rect x="310.918" y="269.543" style="fill:#FFB87A;" width="18.021" height="17.326"/>
						<path style="fill:#F2A45E;" d="M328.932,272.038v3.954c-2.732,1.276-5.787,1.995-9.004,1.995
							c-3.217,0-6.272-0.719-9.004-1.995v-3.954c2.732,1.276,5.787,1.995,9.004,1.995
							C323.145,274.032,326.2,273.314,328.932,272.038z"/>
					</g>
					<g>
						<path style="fill:#FFFFFF;" d="M355.941,370.25c-0.35,7.34-0.66,12.4-0.7,13.06c0,0-1.33,8.58-4.9,10.72
							c-1.5,0.89-14.46,1.43-28.4,1.46h-1c-16.43,0.01-33.86-0.69-35.27-2.34c-2.86-3.33-2.76-9.76-2.76-9.76s-3.69-72.01,0.58-83.2
							c4.68-12.3,25.92-15.62,34.2-16.9l1.51,2.44l1.82-2.44c4.52,0.7,12.96,2.01,20.45,5.06c0.57,0.23,1.14,0.48,1.7,0.73
							c5.51,2.5,10.27,6.05,12.2,11.11c0.67,1.76,1.13,5.03,1.41,9.28c0.05,0.65,0.09,1.33,0.13,2.02
							C357.761,327.34,356.721,354.24,355.941,370.25z"/>
						<g>
							<path style="fill:#CCE8F2;" d="M321.941,288.75v106.74h-1V288.75c0-0.28,0.22-0.5,0.5-0.5
								C321.721,288.25,321.941,288.47,321.941,288.75z"/>
						</g>
						<path style="fill:#CCE8F2;" d="M310.45,281.685l8.218,1.602c0.712,0.139,1.21,0.785,1.162,1.508l-0.642,9.822
							c-0.014,0.219-0.307,0.284-0.412,0.091l-3.566-6.537l-7.915-2.916L310.45,281.685z"/>
						<path style="fill:#CCE8F2;" d="M329.018,281.685l-8.218,1.602c-0.712,0.139-1.21,0.785-1.162,1.508l0.642,9.822
							c0.014,0.219,0.306,0.284,0.412,0.091l3.566-6.537l7.915-2.916L329.018,281.685z"/>
					</g>
					<g>
						<path style="fill:#FFB87A;" d="M384.233,489.25c0,0,8.617,17.949,7.632,18.823c-0.986,0.874-3.406-4.011-3.406-4.011
							s1.869,8.85,1.136,9.253c-0.733,0.403-4.008-7.825-4.008-7.825s0.277,10.14-0.526,10.343
							c-0.803,0.203-3.223-9.005-3.223-9.005s-0.941,8.167-1.512,8.301c-0.571,0.134-4.47-13.88-4.47-13.88
							s-4.739,4.201-5.344,3.966c-0.605-0.235,4.971-16.091,4.971-16.091L384.233,489.25z"/>
						<path style="fill:#FFFFFF;" d="M396.051,397.5c-1.53,20.86-5.79,75.19-9.99,95.24h-12.08c0,0-5.66-74.32-8.19-103.54
							c0,0-27.87-81.75-24.69-92.71c0,0-0.79-4.2,2.07-5.61c0.29-0.15,0.61-0.27,0.98-0.35c0.45-0.09,0.96-0.13,1.54-0.11
							c5.46,0.2,36.51,34.43,48.97,89.17C396.001,385.47,396.491,391.49,396.051,397.5z"/>
						<g>
							<g>
								<polygon style="fill:#CCE8F2;" points="356.274,359.917 347.108,342.083 355.941,370.25 								"/>
							</g>
							<g>
								<path style="fill:#CCE8F2;" d="M385.931,463.33c-2.1,13.17-3.57,22.62-4.58,29.41h-1.02c1.14-7.58,2.68-17.47,4.62-29.57
									c7.77-48.57,3.09-97.61-5.71-115.2c-4.07-8.13-13.57-23.13-22.33-36.48c-5.32-8.13-10.36-15.64-13.74-20.61
									c-0.62-0.94-1.2-1.79-1.7-2.53c0.57,0.23,1.14,0.48,1.7,0.73c0.31,0.46,0.64,0.94,0.98,1.45
									c3.16,4.67,7.73,11.49,12.63,18.94c9.03,13.73,19.12,29.59,23.36,38.06C389.001,365.25,393.741,414.57,385.931,463.33z"/>
							</g>
						</g>
					</g>
					<g>
						<path style="fill:#FFB87A;" d="M255.191,489.938c0,0-8.224,17.261-7.238,18.135c0.986,0.874,3.406-4.011,3.406-4.011
							s-1.869,8.85-1.136,9.253c0.733,0.403,4.008-7.825,4.008-7.825s-0.277,10.14,0.526,10.343
							c0.803,0.203,3.223-9.005,3.223-9.005s0.941,8.167,1.512,8.301c0.571,0.134,4.47-13.88,4.47-13.88s4.739,4.201,5.344,3.966
							c0.605-0.235-4.677-15.716-4.677-15.716L255.191,489.938z"/>
						<path style="fill:#FFFFFF;" d="M288.111,345.25v0.02c-2.07,6.91-4.2,13.74-6.16,19.87v0.01c-4.38,13.76-7.89,24.05-7.89,24.05
							c-2.53,29.22-8.19,103.54-8.19,103.54h-12.07c-4.21-20.05-8.47-74.38-10-95.24c-0.44-6.01,0.06-12.03,1.39-17.91
							c9.99-43.87,31.85-74.88,42.95-85.57c1.17-1.12,2.22-2.02,3.12-2.68c1.22-0.9,2.18-1.38,2.8-1.4
							c5.77-0.21,4.69,6.55,4.69,6.55C300.301,301.83,294.491,323.95,288.111,345.25z"/>
						<g>
							<g>
								<polygon style="fill:#CCE8F2;" points="281.941,364.917 288.108,345.25 282.608,376.917 								"/>
							</g>
							<g>
								<path style="fill:#CCE8F2;" d="M256.431,491.92c0.05,0.27-0.14,0.53-0.41,0.57c-0.03,0.01-0.05,0.01-0.08,0.01
									c-0.24,0-0.45-0.17-0.49-0.42c-0.14-0.81-13.42-81.8-4.75-121.69c6.26-28.79,26.52-60.67,37.44-76.37
									c1.17-1.12,2.22-2.02,3.12-2.68c-10.05,14.07-32.89,48.48-39.58,79.27C243.051,410.3,256.301,491.11,256.431,491.92z"/>
							</g>
						</g>
					</g>
				</g>
			</g>
			<path style="fill:#CC7548;" d="M290.461,287.914c-2.967,1.687-4.793,4.845-4.76,8.258c0.048,4.989,0.336,11.612,1.506,12.212
				c1.897,0.973,3.176-3.857,3.176-3.857s1.952,7.875,3.253,8.29c1.301,0.415,0.567-8.853,0.567-8.853s2.956,7.885,4.078,8.524
				c1.123,0.639-0.148-10.039-0.148-10.039s4.135,7.922,5.441,7.835c1.306-0.087-3.679-18.156-3.679-18.156s7.988-0.822,6.026-2.774
				c-0.965-0.96-3.409-2.069-5.645-2.948c-2.664-1.048-5.655-0.857-8.143,0.558L290.461,287.914z"/>
		</g>
	</g>
</g>
<g id="DESIGNED_BY_FREEPIK">
	<g id="XMLID_258_">
		<g id="XMLID_287_">
			<g id="XMLID_306_">
				<path id="XMLID_314_" style="fill:#9EB7C7;" d="M260.104,465.465c-0.433,0.443-0.804,0.932-1.108,1.453l-0.465-0.241
					c-0.067-0.297-0.35-0.502-0.659-0.466c-0.331,0.039-0.567,0.339-0.529,0.67c0.039,0.331,0.339,0.567,0.67,0.528
					c0.065-0.007,0.127-0.025,0.184-0.052l0.451,0.234c-0.251,0.554-0.433,1.139-0.539,1.743l0.747,0.132
					c0.229-1.306,0.85-2.507,1.792-3.473L260.104,465.465z"/>
				<path id="XMLID_313_" style="fill:#9EB7C7;" d="M265.591,463.164c-0.171,0-0.341,0.006-0.509,0.017l-0.074-0.626
					c0.188-0.149,0.296-0.389,0.266-0.645c-0.046-0.393-0.402-0.674-0.795-0.628c-0.394,0.046-0.675,0.402-0.628,0.796
					c0.03,0.254,0.189,0.461,0.404,0.563l0.073,0.624c-0.714,0.116-1.402,0.332-2.06,0.646l0.327,0.685
					c0.935-0.447,1.941-0.674,2.995-0.674c0.497,0,0.993,0.053,1.476,0.158l0.16-0.741
					C266.692,463.222,266.142,463.164,265.591,463.164z"/>
				<path id="XMLID_312_" style="fill:#9EB7C7;" d="M272.194,465.711c0.331-0.04,0.566-0.341,0.525-0.672
					c-0.04-0.331-0.341-0.566-0.672-0.525c-0.31,0.038-0.535,0.304-0.53,0.608l-0.416,0.363c-0.418-0.43-0.89-0.813-1.407-1.14
					l-0.404,0.642c1.135,0.715,2.021,1.727,2.564,2.925l0.69-0.313c-0.251-0.554-0.567-1.071-0.942-1.545l0.402-0.351
					C272.065,465.715,272.128,465.719,272.194,465.711z"/>
				<path id="XMLID_311_" style="fill:#9EB7C7;" d="M265.044,473.372c-0.386,0.023-0.775,0.035-1.157,0.035
					c-0.88,0-1.733-0.061-2.479-0.18c-0.391-0.062-0.846-0.154-1.271-0.292c1.047,1.861,3.069,3.125,5.389,3.125
					c2.855,0,5.263-1.916,5.949-4.503c-0.682,0.449-1.505,0.825-2.458,1.122C267.838,473.047,266.463,473.287,265.044,473.372z"/>
				<path id="XMLID_307_" style="fill:#9EB7C7;" d="M265.591,464.68c-3.351,0-6.079,2.666-6.079,5.943
					c0,0.425,0.046,0.849,0.137,1.261c0.674,0.483,2.706,0.891,5.348,0.731c2.88-0.174,5.297-0.958,6.672-2.159
					c-0.005-0.194-0.02-0.39-0.045-0.581C271.244,466.914,268.65,464.68,265.591,464.68z M263.432,471.195
					c-1.02,0-1.85-0.83-1.85-1.85c0-1.021,0.83-1.851,1.85-1.851c1.02,0,1.85,0.83,1.85,1.851
					C265.282,470.365,264.452,471.195,263.432,471.195z M268.169,470.287c-0.75,0-1.36-0.61-1.36-1.36s0.61-1.36,1.36-1.36
					s1.36,0.61,1.36,1.36S268.919,470.287,268.169,470.287z"/>
			</g>
			<path id="XMLID_304_" style="fill:#9EB7C7;" d="M281.595,466.547c-0.295-0.116-0.806-0.31-1.383-0.238
				c-0.551,0.069-0.844,0.341-0.844,1.007v0.866h2.229v1.717h-2.229v5.455h-1.932v-5.455h-1.339v-1.717h1.339v-0.889
				c0-1.68,0.896-2.782,2.568-2.782c0.643,0,1.157,0.121,1.59,0.308V466.547z"/>
			<path id="XMLID_302_" style="fill:#9EB7C7;" d="M286.297,469.878c-0.177-0.029-0.357-0.046-0.525-0.046
				c-0.896,0-1.51,0.548-1.51,1.613v3.908h-1.933v-7.172h1.873v0.784c0.451-0.673,1.14-0.977,2.021-0.977
				c0.414,0,0.848,0.128,1.095,0.337L286.297,469.878z"/>
			<path id="XMLID_299_" style="fill:#9EB7C7;" d="M293.965,471.757c0,0.222-0.016,0.488-0.037,0.651h-5.085
				c0.207,1.036,0.933,1.487,1.843,1.487c0.622,0,1.295-0.252,1.813-0.689l1.133,1.243c-0.814,0.748-1.851,1.089-3.057,1.089
				c-2.198,0-3.724-1.496-3.724-3.753c0-2.258,1.48-3.797,3.627-3.797C292.543,467.99,293.958,469.522,293.965,471.757z
				 M288.851,471.091h3.175c-0.178-0.918-0.732-1.437-1.561-1.437C289.554,469.655,289.021,470.203,288.851,471.091z"/>
			<path id="XMLID_296_" style="fill:#9EB7C7;" d="M301.619,471.757c0,0.222-0.016,0.488-0.037,0.651h-5.085
				c0.207,1.036,0.933,1.487,1.843,1.487c0.622,0,1.296-0.252,1.814-0.689l1.133,1.243c-0.815,0.748-1.851,1.089-3.058,1.089
				c-2.198,0-3.723-1.496-3.723-3.753c0-2.258,1.48-3.797,3.627-3.797C300.197,467.99,301.611,469.522,301.619,471.757z
				 M296.504,471.091h3.175c-0.178-0.918-0.733-1.437-1.561-1.437C297.208,469.655,296.674,470.203,296.504,471.091z"/>
			<path id="XMLID_293_" style="fill:#9EB7C7;" d="M309.964,471.764c0,2.154-1.495,3.775-3.472,3.775
				c-0.962,0-1.644-0.378-2.109-0.933v3.708h-1.925v-10.133h1.888v0.792c0.467-0.585,1.154-0.984,2.139-0.984
				C308.469,467.99,309.964,469.611,309.964,471.764z M304.287,471.764c0,1.133,0.748,1.977,1.844,1.977
				c1.14,0,1.85-0.881,1.85-1.977c0-1.095-0.71-1.976-1.85-1.976C305.035,469.789,304.287,470.632,304.287,471.764z"/>
			<path id="XMLID_290_" style="fill:#9EB7C7;" d="M313.068,465.836c0,0.696-0.541,1.229-1.236,1.229
				c-0.696,0-1.229-0.533-1.229-1.229c0-0.695,0.532-1.243,1.229-1.243C312.527,464.592,313.068,465.14,313.068,465.836z
				 M312.808,475.354h-1.932v-7.172h1.932V475.354z"/>
			<path id="XMLID_288_" style="fill:#9EB7C7;" d="M316.032,470.736l2.702-2.554h2.368l-3.478,3.375l3.501,3.797h-2.376
				l-2.717-2.901v2.901H314.1v-10.658h1.932V470.736z"/>
		</g>
		<g id="XMLID_259_">
			<path id="XMLID_284_" style="fill:#9EB7C7;" d="M184.412,475.29v-1.055c-0.527,0.718-1.391,1.23-2.387,1.23
				c-1.846,0-3.149-1.406-3.149-3.706c0-2.256,1.289-3.721,3.149-3.721c0.952,0,1.816,0.469,2.387,1.245v-3.765h1.099v9.771H184.412
				z M184.412,473.371v-3.208c-0.395-0.615-1.245-1.143-2.124-1.143c-1.42,0-2.27,1.172-2.27,2.739c0,1.567,0.85,2.725,2.27,2.725
				C183.167,474.484,184.017,473.986,184.412,473.371z"/>
			<path id="XMLID_281_" style="fill:#9EB7C7;" d="M186.932,471.745c0-2.051,1.465-3.706,3.486-3.706
				c2.139,0,3.398,1.67,3.398,3.794v0.278h-5.727c0.088,1.333,1.025,2.446,2.549,2.446c0.806,0,1.626-0.322,2.182-0.894l0.527,0.718
				c-0.703,0.703-1.655,1.084-2.812,1.084C188.44,475.465,186.932,473.957,186.932,471.745z M190.403,468.947
				c-1.509,0-2.256,1.274-2.314,2.358h4.644C192.718,470.25,192.015,468.947,190.403,468.947z"/>
			<path id="XMLID_279_" style="fill:#9EB7C7;" d="M194.607,474.352l0.571-0.791c0.469,0.542,1.362,1.011,2.329,1.011
				c1.084,0,1.67-0.513,1.67-1.216c0-1.714-4.38-0.659-4.38-3.281c0-1.099,0.952-2.036,2.636-2.036c1.202,0,2.051,0.454,2.623,1.025
				l-0.513,0.762c-0.424-0.513-1.201-0.894-2.109-0.894c-0.966,0-1.567,0.483-1.567,1.113c0,1.553,4.379,0.527,4.379,3.281
				c0,1.187-0.952,2.139-2.783,2.139C196.306,475.465,195.325,475.114,194.607,474.352z"/>
			<path id="XMLID_276_" style="fill:#9EB7C7;" d="M201.477,466.471c0-0.41,0.337-0.747,0.732-0.747c0.41,0,0.747,0.337,0.747,0.747
				c0,0.41-0.337,0.732-0.747,0.732C201.814,467.204,201.477,466.881,201.477,466.471z M201.667,475.29v-7.075h1.099v7.075H201.667z
				"/>
			<path id="XMLID_273_" style="fill:#9EB7C7;" d="M204.582,477.106l0.556-0.82c0.586,0.703,1.289,0.967,2.3,0.967
				c1.172,0,2.27-0.571,2.27-2.124v-1.011c-0.513,0.718-1.377,1.26-2.373,1.26c-1.846,0-3.149-1.377-3.149-3.662
				c0-2.271,1.289-3.677,3.149-3.677c0.952,0,1.802,0.469,2.373,1.245v-1.069h1.099v6.87c0,2.344-1.641,3.076-3.369,3.076
				C206.237,478.161,205.416,477.925,204.582,477.106z M209.708,473.253v-3.091c-0.381-0.615-1.23-1.143-2.109-1.143
				c-1.421,0-2.27,1.128-2.27,2.695c0,1.553,0.849,2.695,2.27,2.695C208.478,474.411,209.328,473.869,209.708,473.253z"/>
			<path id="XMLID_271_" style="fill:#9EB7C7;" d="M217.413,475.29v-4.629c0-1.245-0.63-1.641-1.582-1.641
				c-0.864,0-1.685,0.527-2.094,1.099v5.171h-1.099v-7.075h1.099v1.025c0.497-0.586,1.464-1.201,2.519-1.201
				c1.48,0,2.256,0.747,2.256,2.285v4.966H217.413z"/>
			<path id="XMLID_268_" style="fill:#9EB7C7;" d="M219.932,471.745c0-2.051,1.465-3.706,3.486-3.706
				c2.139,0,3.398,1.67,3.398,3.794v0.278h-5.727c0.088,1.333,1.025,2.446,2.548,2.446c0.806,0,1.626-0.322,2.183-0.894l0.527,0.718
				c-0.703,0.703-1.655,1.084-2.813,1.084C221.441,475.465,219.932,473.957,219.932,471.745z M223.404,468.947
				c-1.509,0-2.256,1.274-2.314,2.358h4.643C225.718,470.25,225.015,468.947,223.404,468.947z"/>
			<path id="XMLID_265_" style="fill:#9EB7C7;" d="M233.35,475.29v-1.055c-0.527,0.718-1.392,1.23-2.388,1.23
				c-1.845,0-3.149-1.406-3.149-3.706c0-2.256,1.289-3.721,3.149-3.721c0.952,0,1.817,0.469,2.388,1.245v-3.765h1.098v9.771H233.35z
				 M233.35,473.371v-3.208c-0.396-0.615-1.245-1.143-2.124-1.143c-1.421,0-2.27,1.172-2.27,2.739c0,1.567,0.85,2.725,2.27,2.725
				C232.105,474.484,232.954,473.986,233.35,473.371z"/>
			<path id="XMLID_262_" style="fill:#9EB7C7;" d="M239.692,475.29v-9.771h1.099v3.765c0.571-0.776,1.421-1.245,2.388-1.245
				c1.845,0,3.149,1.465,3.149,3.721c0,2.3-1.304,3.706-3.149,3.706c-0.996,0-1.86-0.513-2.388-1.23v1.055H239.692z M242.9,474.484
				c1.436,0,2.285-1.157,2.285-2.725c0-1.567-0.85-2.739-2.285-2.739c-0.864,0-1.729,0.527-2.109,1.143v3.208
				C241.171,473.986,242.036,474.484,242.9,474.484z"/>
			<path id="XMLID_260_" style="fill:#9EB7C7;" d="M247.528,477.062c0.161,0.073,0.425,0.117,0.6,0.117
				c0.483,0,0.806-0.161,1.055-0.747l0.469-1.069l-2.959-7.148h1.187l2.358,5.801l2.344-5.801h1.2l-3.544,8.511
				c-0.425,1.024-1.143,1.421-2.08,1.436c-0.234,0-0.6-0.044-0.806-0.104L247.528,477.062z"/>
		</g>
	</g>
</g>
</svg>
